<svg width="1600" height="832" viewBox="0 0 1600 832" fill="none" xmlns="http://www.w3.org/2000/svg">
<mask id="mask0" mask-type="alpha" maskUnits="userSpaceOnUse" x="0" y="0" width="1600" height="832">
<path d="M0 0V464.638C29.7038 492.813 79.8999 576.471 43.0538 685.704C6.20776 794.936 40.0501 828.579 61.577 831.747C159.7 838.749 122.653 698.707 114.643 626.686C106.633 554.665 126.158 472.14 155.194 485.144C178.423 495.547 173.217 556.165 167.71 585.174C181.227 660.196 242.804 628.687 233.792 510.151C226.583 415.323 262.829 399.285 281.852 403.12C377.472 489.145 328.411 550.663 343.429 674.2C358.448 797.737 468.586 732.718 455.069 685.704C441.552 638.69 489.111 551.164 504.631 571.67C520.15 592.176 563.705 608.681 577.722 585.174C591.74 561.667 646.308 571.17 657.322 563.667C668.335 556.165 660.826 497.148 722.904 491.646C784.981 486.144 754.443 564.167 754.944 608.681C755.444 653.194 779.474 665.197 808.01 656.195C830.839 648.993 835.544 627.52 835.044 617.683C826.033 574.337 817.121 491.246 853.567 505.65C890.013 520.054 895.786 564.668 894.118 585.174C884.272 652.194 875.695 791.235 920.15 811.241C975.72 836.248 998.748 773.23 990.238 738.719C981.727 704.209 984.23 590.675 995.244 575.671C1004.06 563.667 1029.29 543.995 1040.8 535.659C1047.14 520.988 1065.63 500.449 1088.86 535.659C1117.9 579.672 1112.39 579.672 1152.44 585.174C1192.49 590.675 1189.99 517.654 1208.51 480.643C1227.03 443.632 1252.57 464.638 1322.15 426.627C1391.74 388.615 1460.83 464.638 1454.32 534.159C1447.81 603.679 1429.79 814.742 1502.88 797.737C1575.97 780.732 1537.42 610.181 1544.43 534.159C1550.04 473.341 1583.81 462.471 1600 464.638V0H0Z" fill="#7E411F"/>
</mask>
<g mask="url(#mask0)">
<path d="M0 0V464.638C29.7038 492.813 79.8999 576.471 43.0538 685.704C6.20776 794.936 40.0501 828.579 61.577 831.747C159.7 838.749 122.653 698.707 114.643 626.686C106.633 554.665 126.158 472.14 155.194 485.144C178.423 495.547 173.217 556.165 167.71 585.174C181.227 660.196 242.804 628.687 233.792 510.151C226.583 415.323 262.829 399.285 281.852 403.12C377.472 489.145 328.411 550.663 343.429 674.2C358.448 797.737 468.586 732.718 455.069 685.704C441.552 638.69 489.111 551.164 504.631 571.67C520.15 592.176 563.705 608.681 577.722 585.174C591.74 561.667 646.308 571.17 657.322 563.667C668.335 556.165 660.826 497.148 722.904 491.646C784.981 486.144 754.443 564.167 754.944 608.681C755.444 653.194 779.474 665.197 808.01 656.195C830.839 648.993 835.544 627.52 835.044 617.683C826.033 574.337 817.121 491.246 853.567 505.65C890.013 520.054 895.786 564.668 894.118 585.174C884.272 652.194 875.695 791.235 920.15 811.241C975.72 836.248 998.748 773.23 990.238 738.719C981.727 704.209 984.23 590.675 995.244 575.671C1004.06 563.667 1029.29 543.995 1040.8 535.659C1047.14 520.988 1065.63 500.449 1088.86 535.659C1117.9 579.672 1112.39 579.672 1152.44 585.174C1192.49 590.675 1189.99 517.654 1208.51 480.643C1227.03 443.632 1252.57 464.638 1322.15 426.627C1391.74 388.615 1460.83 464.638 1454.32 534.159C1447.81 603.679 1429.79 814.742 1502.88 797.737C1575.97 780.732 1537.42 610.181 1544.43 534.159C1550.04 473.341 1583.81 462.471 1600 464.638V0H0Z" fill="#7E411F"/>
<path d="M87.1209 7.35917L89.8134 10.4439C91.2945 12.1394 91.0929 14.718 89.3647 16.175L55.2451 44.8853C53.5182 46.339 50.8896 46.1424 49.4086 44.4437L46.716 41.359C45.2351 39.6603 45.4364 37.0816 47.1673 35.6279L81.2867 6.91753C83.0152 5.46381 85.6398 5.66047 87.1209 7.35917Z" fill="#54D149"/>
<path d="M130.059 36.2822L128.129 32.9073C127.068 31.0507 127.745 28.6815 129.636 27.6372L166.951 7.05616C168.84 6.0118 171.256 6.67897 172.317 8.5324L174.246 11.9105C175.311 13.7639 174.631 16.1363 172.74 17.1806L135.428 37.7617C133.537 38.8061 131.123 38.1388 130.059 36.2822" fill="#EFDB25"/>
<path d="M203.6 34.6962L203.157 31.2955C202.914 29.426 204.273 27.6982 206.177 27.4597L243.765 22.7407C245.669 22.5054 247.428 23.8367 247.672 25.7062L248.114 29.1101C248.358 30.9796 246.998 32.7041 245.094 32.9426L207.504 37.6616C205.6 37.9001 203.843 36.5657 203.6 34.6962" fill="#54D149"/>
<path d="M293.078 45.2012L291.591 43.1737C290.773 42.0617 291.033 40.4919 292.168 39.6893L314.558 23.8337C315.692 23.031 317.292 23.2857 318.109 24.3977L319.597 26.422C320.415 27.5373 320.156 29.1071 319.02 29.9097L296.63 45.7653C295.495 46.5679 293.896 46.3133 293.078 45.2012" fill="#7E411F"/>
<path d="M393.652 23.3051L395.562 25.0618C396.613 26.0288 396.668 27.6631 395.684 28.6945L376.255 49.0693C375.27 50.1007 373.606 50.1556 372.556 49.1886L370.645 47.4319C369.595 46.4649 369.539 44.8306 370.524 43.7991L389.953 23.4243C390.937 22.3929 392.598 22.3381 393.652 23.3051Z" fill="#7E411F"/>
<path d="M447.871 58.5878L444.366 56.8955C442.439 55.964 441.638 53.6529 442.587 51.7608L461.313 14.4022C462.262 12.5101 464.615 11.7236 466.542 12.6552L470.044 14.3506C471.971 15.2822 472.772 17.5933 471.823 19.4854L453.1 56.8408C452.152 58.7329 449.798 59.5193 447.871 58.5878Z" fill="#54D149"/>
<path d="M534.222 18.1087L537.482 18.3085C539.274 18.4214 540.649 19.9525 540.538 21.7124L538.319 56.4601C538.204 58.22 536.645 59.5705 534.853 59.4609L531.593 59.2579C529.801 59.1483 528.426 57.6172 528.537 55.8573L530.759 21.1096C530.871 19.3464 532.43 17.9991 534.222 18.1087" fill="#EFDB25"/>
<path d="M625.192 18.8116L628.018 20.8746C629.574 22.0092 629.899 24.1882 628.747 25.716L605.94 55.8607C604.785 57.3886 602.566 57.7109 601.013 56.5763L598.184 54.5134C596.631 53.3788 596.303 51.1998 597.459 49.6751L620.265 19.5272C621.417 17.9994 623.636 17.677 625.192 18.8116" fill="#E93D3D"/>
<path d="M690.883 22.7186L691.471 19.9401C691.796 18.409 693.335 17.4194 694.891 17.7353L725.628 24.0111C727.187 24.327 728.198 25.8388 727.873 27.3667L727.285 30.1484C726.964 31.6763 725.421 32.6691 723.865 32.35L693.125 26.0774C691.569 25.7583 690.562 24.2497 690.883 22.7186" fill="#54D149"/>
<path d="M789.55 13.5608L792.262 16.3168C793.755 17.8318 793.712 20.2686 792.17 21.732L761.709 50.6422C760.163 52.1088 757.681 52.0669 756.187 50.5519L753.476 47.7959C751.986 46.281 752.025 43.8441 753.571 42.3775L784.032 13.4673C785.578 12.004 788.06 12.0426 789.55 13.5608" fill="#F861BB"/>
<path d="M871.299 42.3259L867.958 43.0963C866.116 43.5185 864.258 42.384 863.828 40.5789L855.324 4.91256C854.894 3.10426 856.049 1.28313 857.887 0.857648L861.232 0.0872246C863.07 -0.33181 864.931 0.799602 865.361 2.60467L873.863 38.2709C874.293 40.0792 873.141 41.9037 871.299 42.3259" fill="#EFDB25"/>
<path d="M950.773 13.4931L953.136 16.9324C954.436 18.8245 953.924 21.4161 951.997 22.6926L913.961 47.8991C912.034 49.1755 909.398 48.6727 908.095 46.7806L905.735 43.338C904.432 41.4491 904.944 38.8544 906.87 37.578L944.904 12.3714C946.831 11.0982 949.473 11.601 950.773 13.4931" fill="#F861BB"/>
<path d="M28.9921 84.1296L32.0604 83.4366C33.7465 83.053 35.4416 84.0973 35.83 85.7541L43.5002 118.442C43.8887 120.096 42.827 121.762 41.1409 122.146L38.0739 122.839C36.3878 123.222 34.6915 122.178 34.3042 120.521L26.6328 87.8364C26.2456 86.1796 27.306 84.5131 28.9921 84.1296" fill="#EFDB25"/>
<path d="M99.449 117.752L97.4336 115.425C96.3245 114.145 96.4807 112.208 97.7822 111.115L123.501 89.6123C124.802 88.5228 126.777 88.6807 127.886 89.9604L129.902 92.2844C131.011 93.5641 130.854 95.5046 129.553 96.5909L103.834 118.094C102.533 119.183 100.558 119.029 99.449 117.752" fill="#54D149"/>
<path d="M183.574 124.763L181.411 123.461C180.221 122.745 179.843 121.204 180.574 120.034L194.971 96.955C195.702 95.7849 197.272 95.4142 198.461 96.133L200.625 97.4353C201.817 98.1508 202.193 99.6916 201.465 100.862L187.066 123.941C186.337 125.111 184.767 125.478 183.574 124.763" fill="#EFDB25"/>
<path d="M275.859 100.037L277.791 101.716C278.855 102.638 278.955 104.25 278.015 105.294L259.446 125.917C258.504 126.961 256.865 127.058 255.801 126.136L253.865 124.457C252.804 123.532 252.702 121.923 253.644 120.875L272.213 100.256C273.153 99.2114 274.794 99.1115 275.859 100.037" fill="#EFDB25"/>
<path d="M358.366 121.359L355.871 122.565C354.499 123.232 352.825 122.671 352.149 121.327L338.802 94.7471C338.125 93.3997 338.693 91.7526 340.064 91.0886L342.558 89.8831C343.927 89.2191 345.604 89.7767 346.279 91.124L359.626 117.704C360.302 119.051 359.738 120.695 358.366 121.359Z" fill="#54D149"/>
<path d="M411.305 96.1624L413.931 94.8795C415.375 94.1736 417.145 94.7602 417.863 96.1785L432.021 124.176C432.739 125.591 432.145 127.329 430.701 128.035L428.075 129.314C426.631 130.02 424.862 129.437 424.146 128.015L409.982 100.021C409.267 98.6024 409.861 96.865 411.305 96.1624Z" fill="#7E411F"/>
<path d="M498.598 87.269L500.479 84.9031C501.509 83.6009 503.439 83.3623 504.762 84.3777L530.943 104.388C532.266 105.404 532.505 107.299 531.475 108.601L529.6 110.967C528.566 112.269 526.636 112.505 525.31 111.492L499.133 91.4819C497.807 90.4666 497.567 88.5712 498.598 87.269" fill="#54D149"/>
<path d="M564.815 130.732L561.608 128.55C559.842 127.351 559.396 124.95 560.617 123.216L584.739 88.9902C585.964 87.2561 588.406 86.8209 590.172 88.02L593.382 90.2022C595.145 91.4045 595.591 93.8027 594.37 95.5368L570.247 129.762C569.023 131.496 566.581 131.932 564.815 130.732Z" fill="#7E411F"/>
<path d="M683.623 74.7882L686.767 78.3854C688.494 80.3613 688.261 83.3687 686.245 85.0642L646.498 118.551C644.486 120.247 641.424 120.018 639.697 118.039L636.556 114.445C634.829 112.466 635.066 109.462 637.078 107.766L676.821 74.2788C678.837 72.5834 681.896 72.8123 683.623 74.7882Z" fill="#F861BB"/>
<path d="M724.459 132.579L721.203 130.729C719.411 129.714 718.79 127.441 719.828 125.681L740.271 90.9403C741.308 89.1771 743.622 88.571 745.414 89.5864L748.674 91.4366C750.466 92.4552 751.083 94.7244 750.049 96.4876L729.603 131.229C728.566 132.989 726.255 133.598 724.459 132.579" fill="#F861BB"/>
<path d="M841.058 86.7278L842.982 91.0761C844.042 93.4711 842.913 96.2754 840.477 97.3166L792.38 117.811C789.941 118.848 787.085 117.74 786.028 115.348L784.104 111C783.048 108.605 784.173 105.797 786.609 104.759L834.707 84.262C837.142 83.2273 840.001 84.3329 841.058 86.7278Z" fill="#54D149"/>
<path d="M897.67 126.865L893.807 126.152C891.676 125.759 890.265 123.728 890.665 121.64L898.563 80.4003C898.963 78.3115 901.031 76.9256 903.158 77.3156L907.028 78.0311C909.155 78.4244 910.567 80.4551 910.166 82.5438L902.269 123.783C901.868 125.872 899.8 127.261 897.67 126.865" fill="#EFDB25"/>
<path d="M72.7538 202.388L69.5393 201.862C67.7724 201.575 66.5671 199.922 66.8595 198.184L72.655 163.914C72.9462 162.18 74.6324 160.993 76.4016 161.28L79.6174 161.806C81.383 162.092 82.5883 163.749 82.2972 165.487L76.5017 199.757C76.2092 201.491 74.5234 202.674 72.7538 202.388" fill="#EFDB25"/>
<path d="M124.148 183.37L122.539 178.986C121.655 176.575 122.939 173.89 125.395 173.02L173.872 155.868C176.327 154.998 179.061 156.261 179.946 158.673L181.555 163.056C182.44 165.467 181.155 168.152 178.7 169.019L130.222 186.174C127.767 187.041 125.033 185.781 124.148 183.37" fill="#7E411F"/>
<path d="M202.724 205.23L200.465 202.442C199.221 200.908 199.48 198.655 201.042 197.433L231.862 173.326C233.424 172.104 235.719 172.359 236.963 173.89L239.222 176.678C240.466 178.212 240.207 180.465 238.645 181.687L207.825 205.794C206.263 207.016 203.968 206.761 202.724 205.23Z" fill="#54D149"/>
<path d="M284.138 196.167L282.622 193.079C281.785 191.38 282.519 189.317 284.25 188.498L318.402 172.317C320.133 171.498 322.229 172.217 323.065 173.916L324.582 177.004C325.418 178.706 324.685 180.765 322.956 181.584L288.802 197.765C287.071 198.584 284.975 197.865 284.138 196.167Z" fill="#F861BB"/>
<path d="M361.465 178.499L362.315 174.767C362.784 172.713 364.878 171.408 366.969 171.869L408.262 180.942C410.356 181.4 411.683 183.457 411.213 185.513L410.363 189.246C409.897 191.302 407.799 192.605 405.712 192.147L364.415 183.07C362.325 182.612 360.995 180.556 361.465 178.499" fill="#EFDB25"/>
<path d="M457.394 180.607L456.701 177.8C456.317 176.256 457.295 174.686 458.867 174.312L489.913 166.934C491.485 166.56 493.083 167.517 493.464 169.061L494.157 171.869C494.534 173.413 493.559 174.983 491.99 175.357L460.945 182.735C459.37 183.109 457.774 182.151 457.394 180.607Z" fill="#54D149"/>
<path d="M525.481 154.84L530.077 153.88C532.604 153.348 535.112 154.947 535.65 157.429L546.298 206.43C546.837 208.915 545.212 211.378 542.681 211.906L538.089 212.87C535.558 213.399 533.047 211.803 532.509 209.321L521.864 160.317C521.326 157.835 522.95 155.372 525.481 154.84" fill="#EFDB25"/>
<path d="M598.04 208.589L594.052 205.688C591.859 204.093 591.396 201.024 593.021 198.871L625.1 156.368C626.728 154.215 629.85 153.76 632.042 155.356L636.027 158.257C638.22 159.852 638.686 162.921 637.061 165.074L604.982 207.577C603.354 209.73 600.232 210.185 598.04 208.589Z" fill="#54D149"/>
<path d="M680.343 154.563L682.982 150.527C684.433 148.303 687.469 147.652 689.731 149.076L734.365 177.203C736.63 178.625 737.29 181.61 735.842 183.831L733.203 187.866C731.753 190.087 728.716 190.738 726.451 189.313L681.817 161.19C679.555 159.765 678.892 156.783 680.343 154.563" fill="#F861BB"/>
<path d="M782.532 205.185L778.068 205.311C775.613 205.382 773.545 203.464 773.476 201.053L772.074 153.457C772.002 151.046 773.955 149.018 776.41 148.948L780.871 148.822C783.326 148.751 785.394 150.666 785.466 153.077L786.868 200.673C786.937 203.084 784.987 205.114 782.532 205.185" fill="#EFDB25"/>
<path d="M872.592 197.008L869.543 198.2C867.866 198.855 865.945 198.046 865.279 196.395L852.107 163.882C851.437 162.234 852.261 160.352 853.942 159.694L856.991 158.505C858.668 157.847 860.589 158.66 861.255 160.307L874.427 192.821C875.097 194.468 874.273 196.353 872.592 197.008Z" fill="#54D149"/>
<path d="M921.609 143.823L925.745 141.151C928.023 139.681 931.109 140.303 932.605 142.54L962.154 186.645C963.651 188.879 963.014 191.909 960.736 193.378L956.603 196.051C954.325 197.52 951.24 196.895 949.743 194.661L920.195 150.556C918.698 148.323 919.334 145.293 921.609 143.823" fill="#EFDB25"/>
<path d="M42.9015 236.442L46.366 239.537C48.2701 241.239 48.4111 244.165 46.6776 246.035L12.4492 282.974C10.7144 284.847 7.73712 284.986 5.83305 283.281L2.36725 280.186C0.463176 278.484 0.322163 275.561 2.05696 273.688L36.2815 236.749C38.0163 234.876 40.9936 234.737 42.9015 236.442Z" fill="#7E411F"/>
<path d="M107.127 241.464L111.239 242.789C113.502 243.521 114.743 245.932 114.002 248.153L99.3441 291.996C98.6003 294.217 96.1411 295.439 93.8818 294.711L89.7686 293.386C87.5057 292.657 86.2616 290.24 87.0054 288.022L101.665 244.175C102.409 241.954 104.866 240.736 107.127 241.464Z" fill="#7E411F"/>
<path d="M166.541 301.135L161.787 299.794C159.174 299.056 157.652 296.355 158.402 293.789L173.227 243.131C173.977 240.565 176.732 239.069 179.343 239.807L184.094 241.148C186.707 241.883 188.233 244.588 187.479 247.153L172.657 297.808C171.904 300.377 169.154 301.873 166.541 301.135" fill="#54D149"/>
<path d="M277.252 279.68L274.47 281.227C272.941 282.075 270.98 281.543 270.114 280.041L253.025 250.373C252.16 248.871 252.702 246.947 254.234 246.096L257.017 244.552C258.545 243.701 260.507 244.233 261.372 245.738L278.461 275.403C279.327 276.905 278.784 278.832 277.252 279.68Z" fill="#F861BB"/>
<path d="M375.632 237.699L377.197 242.054C378.057 244.449 376.764 247.099 374.325 247.946L326.172 264.611C323.732 265.455 321.033 264.189 320.174 261.791L318.61 257.436C317.751 255.041 319.043 252.391 321.482 251.547L369.635 234.879C372.073 234.034 374.775 235.304 375.632 237.699Z" fill="#E93D3D"/>
<path d="M431.59 240.4L434.498 240.716C436.094 240.89 437.256 242.318 437.078 243.885L433.583 274.855C433.405 276.421 431.955 277.565 430.356 277.388L427.454 277.072C425.852 276.898 424.694 275.474 424.868 273.904L428.367 242.937C428.544 241.367 429.995 240.226 431.59 240.4" fill="#F861BB"/>
<path d="M491.948 261.349L491.452 258.502C491.18 256.936 492.259 255.437 493.855 255.17L525.327 249.886C526.922 249.619 528.448 250.679 528.721 252.246L529.216 255.092C529.489 256.659 528.409 258.158 526.814 258.425L495.342 263.711C493.746 263.976 492.22 262.915 491.948 261.349" fill="#F861BB"/>
<path d="M544.822 273.594L542.826 269.117C541.73 266.651 542.885 263.753 545.393 262.674L594.928 241.38C597.439 240.3 600.39 241.435 601.486 243.898L603.485 248.378C604.582 250.841 603.429 253.742 600.918 254.822L551.383 276.115C548.875 277.195 545.921 276.06 544.822 273.594Z" fill="#7E411F"/>
<path d="M650.253 243.23L651.701 239.849C652.495 237.986 654.698 237.103 656.592 237.886L693.998 253.31C695.892 254.09 696.788 256.253 695.994 258.113L694.55 261.494C693.749 263.357 691.553 264.24 689.656 263.457L652.252 248.033C650.358 247.253 649.459 245.09 650.253 243.23" fill="#54D149"/>
<path d="M738.213 239.34L741.469 239.034C743.258 238.863 744.866 240.165 745.034 241.922L748.438 276.624C748.608 278.384 747.285 279.96 745.493 280.128L742.24 280.437C740.448 280.605 738.846 279.303 738.672 277.546L735.272 242.844C735.098 241.084 736.421 239.507 738.213 239.34" fill="#7E411F"/>
<path d="M816.44 284.573L812.458 283.974C810.272 283.645 808.756 281.614 809.091 279.464L815.734 237.032C816.069 234.882 818.134 233.396 820.323 233.725L824.305 234.328C826.491 234.656 828.007 236.684 827.669 238.834L821.032 281.266C820.694 283.416 818.629 284.905 816.44 284.573" fill="#7E411F"/>
<path d="M890.193 236.429L892.32 233.557C893.492 231.975 895.763 231.623 897.375 232.771L929.155 255.453C930.764 256.604 931.125 258.835 929.953 260.417L927.829 263.293C926.661 264.872 924.383 265.227 922.774 264.076L890.991 241.393C889.382 240.246 889.024 238.012 890.193 236.429" fill="#EFDB25"/>
<path d="M63.8783 305.715L68.798 306.166C71.5037 306.418 73.5103 308.796 73.2575 311.456L68.2442 363.919C67.9902 366.578 65.5671 368.551 62.8614 368.299L57.9417 367.845C55.2363 367.597 53.2296 365.218 53.4821 362.562L58.4957 310.095C58.7495 307.436 61.169 305.463 63.8783 305.715" fill="#54D149"/>
<path d="M119.291 321.935L121.606 317.828C122.879 315.572 125.802 314.744 128.1 315.994L173.503 340.662C175.804 341.91 176.644 344.782 175.372 347.038L173.058 351.148C171.785 353.404 168.861 354.229 166.564 352.979L121.161 328.314C118.859 327.063 118.019 324.194 119.291 321.935Z" fill="#54D149"/>
<path d="M219.271 354.162L217.367 352.382C216.319 351.402 216.277 349.762 217.275 348.734L236.944 328.426C237.938 327.398 239.611 327.356 240.658 328.333L242.562 330.112C243.611 331.092 243.652 332.733 242.656 333.764L222.987 354.068C221.989 355.1 220.32 355.138 219.271 354.162" fill="#EFDB25"/>
<path d="M304.529 340.108L303.512 337.961C302.954 336.781 303.48 335.37 304.682 334.818L328.399 323.998C329.602 323.45 331.041 323.965 331.598 325.148L332.615 327.292C333.173 328.472 332.647 329.887 331.445 330.435L307.728 341.256C306.525 341.803 305.086 341.288 304.529 340.108Z" fill="#EFDB25"/>
<path d="M381.927 351.996L379.367 350.268C377.955 349.317 377.597 347.409 378.562 346.026L397.65 318.724C398.618 317.341 400.561 316.984 401.973 317.935L404.533 319.662C405.941 320.61 406.302 322.521 405.334 323.901L386.247 351.206C385.278 352.589 383.335 352.943 381.927 351.996Z" fill="#7E411F"/>
<path d="M432.913 365.024L429.674 361.849C427.894 360.102 427.894 357.246 429.674 355.499L464.763 321.01C466.542 319.263 469.45 319.263 471.229 321.006L474.466 324.181C476.245 325.928 476.245 328.784 474.469 330.531L439.376 365.021C437.597 366.768 434.692 366.768 432.913 365.024Z" fill="#7E411F"/>
<path d="M536.517 357.301L533.241 355.58C531.439 354.633 530.753 352.412 531.718 350.642L550.75 315.711C551.715 313.941 553.976 313.267 555.778 314.215L559.054 315.936C560.856 316.884 561.542 319.105 560.577 320.874L541.546 355.806C540.581 357.575 538.319 358.249 536.517 357.301" fill="#7E411F"/>
<path d="M607.986 328.639L609.604 326.012C610.493 324.568 612.427 324.104 613.897 324.977L642.924 342.251C644.394 343.128 644.87 345.027 643.977 346.467L642.356 349.095C641.466 350.539 639.536 351.003 638.066 350.129L609.039 332.855C607.569 331.979 607.093 330.08 607.986 328.639Z" fill="#EFDB25"/>
<path d="M671.675 312.948L675.065 309.373C676.926 307.404 680.094 307.294 682.1 309.125L721.653 345.278C723.658 347.109 723.77 350.216 721.909 352.183L718.515 355.764C716.65 357.73 713.483 357.843 711.481 356.009L671.924 319.859C669.922 318.025 669.81 314.917 671.675 312.948" fill="#54D149"/>
<path d="M754.779 307.788L758.475 304.519C760.507 302.724 763.668 302.885 765.5 304.88L801.639 344.276C803.468 346.271 803.3 349.375 801.268 351.174L797.572 354.442C795.541 356.241 792.38 356.076 790.551 354.081L754.415 314.686C752.583 312.69 752.747 309.586 754.779 307.788Z" fill="#E93D3D"/>
<path d="M840.661 308.5L843.096 304.413C844.439 302.163 847.409 301.402 849.697 302.72L894.89 328.707C897.178 330.022 897.952 332.939 896.613 335.186L894.174 339.273C892.835 341.523 889.868 342.284 887.576 340.969L842.387 314.982C840.096 313.664 839.318 310.75 840.661 308.5" fill="#7E411F"/>
<path d="M949.277 354.014L945.459 355.097C943.358 355.69 941.146 354.491 940.539 352.431L928.568 311.723C927.961 309.66 929.182 307.488 931.282 306.892L935.1 305.809C937.197 305.215 939.413 306.415 940.02 308.474L951.991 349.179C952.598 351.242 951.377 353.417 949.277 354.014Z" fill="#7E411F"/>
<path d="M6.20482 416.305L6.05097 412.556C5.96379 410.493 7.61525 408.74 9.7142 408.656L51.1678 407.009C53.268 406.922 55.0528 408.543 55.1401 410.603L55.294 414.351C55.3797 416.418 53.7296 418.171 51.6294 418.255L10.1758 419.902C8.07686 419.986 6.29075 418.368 6.20482 416.305" fill="#54D149"/>
<path d="M98.3566 391.017L100.991 388.368C102.443 386.914 104.845 386.888 106.325 388.313L135.594 416.43C137.075 417.852 137.105 420.208 135.652 421.665L133.015 424.311C131.566 425.768 129.164 425.794 127.683 424.369L98.4144 396.252C96.9294 394.827 96.9038 392.471 98.3566 391.017" fill="#54D149"/>
<path d="M172.233 407.382L174.56 405.571C175.836 404.578 177.715 404.791 178.728 406.045L198.74 430.832C199.753 432.086 199.538 433.93 198.26 434.923L195.935 436.734C194.656 437.73 192.78 437.517 191.765 436.26L171.753 411.476C170.74 410.219 170.955 408.378 172.233 407.382Z" fill="#F861BB"/>
<path d="M256.463 394.225L259.44 392.461C261.081 391.494 263.229 392.02 264.216 393.628L283.686 425.401C284.673 427.009 284.141 429.12 282.5 430.087L279.522 431.847C277.88 432.818 275.733 432.292 274.749 430.684L255.275 398.911C254.288 397.303 254.824 395.195 256.463 394.225" fill="#EFDB25"/>
<path d="M330.284 378.491L334.618 376.342C337 375.155 339.937 376.103 341.142 378.443L364.927 424.643C366.132 426.983 365.167 429.865 362.784 431.051L358.451 433.201C356.065 434.384 353.134 433.437 351.929 431.096L328.144 384.896C326.937 382.556 327.903 379.674 330.284 378.491" fill="#54D149"/>
<path d="M418.412 399.063L419.541 395.93C420.168 394.205 422.114 393.296 423.867 393.909L458.513 405.99C460.273 406.602 461.198 408.511 460.571 410.238L459.442 413.371C458.818 415.093 456.869 416.005 455.116 415.392L420.47 403.311C418.71 402.699 417.785 400.787 418.412 399.063Z" fill="#54D149"/>
<path d="M521.309 396.977L523.627 401.016C524.904 403.237 524.096 406.08 521.835 407.331L477.187 432.047C474.922 433.298 472.03 432.505 470.757 430.284L468.436 426.245C467.162 424.024 467.97 421.185 470.231 419.931L514.879 395.217C517.144 393.964 520.036 394.757 521.309 396.977Z" fill="#EFDB25"/>
<path d="M561.782 422.119L561.64 419.183C561.562 417.571 562.842 416.185 564.486 416.108L596.923 414.577C598.568 414.499 599.976 415.76 600.055 417.371L600.199 420.305C600.278 421.92 598.998 423.302 597.357 423.38L564.913 424.911C563.272 424.988 561.864 423.731 561.782 422.119Z" fill="#F861BB"/>
<path d="M641.942 397.426L643.432 393.277C644.25 390.998 646.823 389.789 649.147 390.595L694.986 406.483C697.31 407.286 698.538 409.81 697.721 412.092L696.23 416.237C695.41 418.516 692.84 419.725 690.519 418.919L644.673 403.034C642.352 402.228 641.121 399.708 641.942 397.426" fill="#7E411F"/>
<path d="M739.184 436.847L736.473 436.235C734.983 435.896 734.044 434.423 734.385 432.956L741.17 404.046C741.515 402.583 743.015 401.658 744.505 401.996L747.22 402.609C748.71 402.947 749.649 404.423 749.304 405.887L742.522 434.797C742.178 436.26 740.674 437.182 739.184 436.847" fill="#54D149"/>
<path d="M822.358 436.328L818.754 436.47C816.774 436.55 815.087 435.026 815.008 433.079L813.413 394.676C813.331 392.732 814.887 391.075 816.866 390.995L820.467 390.85C822.446 390.772 824.137 392.3 824.219 394.244L825.811 432.647C825.893 434.59 824.34 436.247 822.358 436.328" fill="#54D149"/>
<path d="M866.405 432.228L864.245 428.553C863.06 426.529 863.769 423.921 865.83 422.754L906.487 399.73C908.545 398.563 911.204 399.263 912.392 401.287L914.548 404.965C915.737 406.986 915.024 409.594 912.966 410.76L872.31 433.785C870.249 434.952 867.593 434.252 866.405 432.228Z" fill="#7E411F"/>
<path d="M966.539 435.87L963.719 434.104C962.167 433.134 961.707 431.09 962.699 429.569L982.232 399.511C983.224 397.989 985.301 397.538 986.851 398.508L989.67 400.275C991.22 401.248 991.679 403.289 990.691 404.813L971.154 434.868C970.166 436.392 968.088 436.844 966.539 435.87" fill="#EFDB25"/>
<path d="M75.2093 475.849L78.6391 478.966C80.5239 480.684 80.6394 483.601 78.8928 485.455L44.4017 522.008C42.654 523.858 39.6832 523.971 37.7983 522.256L34.3684 519.136C32.4836 517.421 32.3682 514.5 34.1146 512.65L68.6057 476.094C70.3536 474.244 73.3242 474.131 75.2093 475.849Z" fill="#E93D3D"/>
<path d="M128.164 522.965L125.145 521.028C123.484 519.964 123.013 517.756 124.097 516.125L145.523 483.924C146.608 482.293 148.856 481.832 150.516 482.896L153.536 484.833C155.197 485.9 155.667 488.108 154.584 489.739L133.158 521.937C132.072 523.568 129.824 524.032 128.164 522.965Z" fill="#54D149"/>
<path d="M225.647 520.731L220.862 520.999C218.226 521.147 215.95 519.152 215.803 516.563L212.857 465.525C212.706 462.94 214.739 460.703 217.375 460.555L222.16 460.29C224.795 460.145 227.071 462.14 227.218 464.726L230.163 515.764C230.315 518.352 228.282 520.586 225.647 520.731Z" fill="#54D149"/>
<path d="M292.687 502.69L290.161 499.734C288.773 498.107 288.991 495.663 290.649 494.297L323.332 467.375C324.986 466.012 327.476 466.224 328.867 467.852L331.393 470.808C332.782 472.436 332.564 474.879 330.906 476.243L298.223 503.167C296.566 504.531 294.076 504.318 292.687 502.69" fill="#EFDB25"/>
<path d="M371.184 476.717L372.218 472.923C372.786 470.84 374.992 469.59 377.115 470.151L419.032 481.184C421.159 481.742 422.426 483.908 421.858 485.993L420.824 489.784C420.253 491.869 418.051 493.117 415.93 492.559L374.007 481.522C371.886 480.965 370.613 478.802 371.184 476.717Z" fill="#7E411F"/>
<path d="M445.35 457.428L449.302 454.572C451.478 452.999 454.564 453.46 456.169 455.597L487.753 497.762C489.351 499.899 488.878 502.932 486.702 504.505L482.75 507.361C480.574 508.931 477.488 508.47 475.883 506.333L444.3 464.168C442.701 462.031 443.174 458.998 445.35 457.428Z" fill="#54D149"/>
<path d="M527.644 480.665L530.159 478.763C531.541 477.716 533.54 477.97 534.606 479.327L555.647 506.11C556.714 507.467 556.454 509.433 555.072 510.481L552.561 512.383C551.179 513.43 549.18 513.176 548.11 511.819L527.07 485.036C526.003 483.679 526.262 481.713 527.644 480.665Z" fill="#7E411F"/>
<path d="M624.174 474.115L626.436 473.077C627.677 472.507 629.17 473.038 629.748 474.257L641.217 498.345C641.798 499.567 641.256 501.03 640.012 501.601L637.754 502.638C636.513 503.206 635.019 502.677 634.438 501.455L622.973 477.371C622.389 476.149 622.93 474.686 624.174 474.115Z" fill="#54D149"/>
<path d="M663.134 501.072L661.709 496.424C660.921 493.868 662.412 491.147 665.018 490.374L716.411 475.16C719.014 474.389 721.784 475.853 722.572 478.409L723.997 483.057C724.785 485.613 723.294 488.337 720.691 489.107L669.295 504.321C666.692 505.092 663.922 503.631 663.134 501.072" fill="#F861BB"/>
<path d="M776.216 478.837L778.015 477.077C779.003 476.11 780.622 476.11 781.606 477.081L801.078 496.25C802.066 497.22 802.062 498.806 801.074 499.773L799.276 501.536C798.288 502.506 796.669 502.503 795.685 501.53L776.216 482.367C775.228 481.393 775.232 479.807 776.216 478.837Z" fill="#7E411F"/>
<path d="M852.271 469.802L855.711 469.093C857.602 468.703 859.479 469.902 859.876 471.762L867.721 508.434C868.122 510.294 866.897 512.131 865.007 512.525L861.567 513.234C859.673 513.624 857.802 512.421 857.405 510.565L849.553 473.893C849.156 472.033 850.38 470.196 852.271 469.802" fill="#EFDB25"/>
<path d="M941.98 477.912L945.105 479.447C946.821 480.291 947.527 482.364 946.667 484.053L929.69 517.382C928.834 519.071 926.72 519.761 925.003 518.916L921.875 517.379C920.155 516.538 919.452 514.465 920.312 512.776L937.289 479.447C938.149 477.758 940.256 477.068 941.98 477.912" fill="#54D149"/>
<path d="M22.694 559.653L23.4185 556.668C23.8185 555.031 25.511 554.009 27.1817 554.402L60.1534 562.141C61.8229 562.531 62.8614 564.195 62.4639 565.835L61.7372 568.817C61.3397 570.458 59.6433 571.479 57.9739 571.086L25.0046 563.347C23.3351 562.957 22.2927 561.29 22.694 559.653" fill="#F861BB"/>
<path d="M104.511 602.04L100.415 602.698C98.1604 603.059 96.013 601.544 95.6447 599.329L88.3682 555.634C87.9989 553.422 89.5417 551.314 91.7944 550.95L95.8949 550.293C98.1476 549.932 100.293 551.447 100.661 553.661L107.941 597.353C108.309 599.568 106.768 601.676 104.511 602.04" fill="#54D149"/>
<path d="M192.836 548.932L195.554 548.52C197.048 548.294 198.458 549.306 198.689 550.776L203.254 579.731C203.485 581.198 202.448 582.584 200.955 582.813L198.24 583.225C196.746 583.451 195.336 582.436 195.105 580.969L190.541 552.014C190.31 550.544 191.342 549.161 192.836 548.932Z" fill="#EFDB25"/>
<path d="M261.628 573.468L260.628 571.151C260.081 569.874 260.692 568.388 261.994 567.847L287.646 557.193C288.943 556.655 290.456 557.255 291.007 558.531L292.008 560.852C292.555 562.128 291.944 563.614 290.642 564.156L264.992 574.809C263.69 575.347 262.177 574.745 261.628 573.468Z" fill="#F861BB"/>
<path d="M346.94 589.388L344.305 588.663C342.856 588.263 342.003 586.774 342.407 585.35L350.422 557.252C350.829 555.827 352.346 554.989 353.796 555.389L356.432 556.111C357.88 556.514 358.733 558.003 358.33 559.424L350.314 587.525C349.91 588.95 348.392 589.785 346.94 589.388Z" fill="#54D149"/>
<path d="M387.77 589.511L385.209 585.427C383.804 583.177 384.523 580.208 386.814 578.826L431.997 551.543C434.288 550.16 437.308 550.87 438.716 553.116L441.277 557.203C442.685 559.45 441.963 562.419 439.675 563.802L394.489 591.087C392.201 592.467 389.175 591.761 387.77 589.511Z" fill="#EFDB25"/>
<path d="M526.551 549.274L528.589 552.891C529.712 554.879 528.97 557.403 526.945 558.506L486.985 580.228C484.963 581.33 482.389 580.605 481.267 578.616L479.231 575.003C478.109 573.014 478.851 570.487 480.873 569.388L520.833 547.662C522.858 546.563 525.432 547.288 526.551 549.274Z" fill="#EFDB25"/>
<path d="M580.16 565.362L582.858 566.225C584.342 566.699 585.163 568.282 584.68 569.739L575.138 598.517C574.652 599.974 573.044 600.78 571.56 600.303L568.862 599.442C567.372 598.965 566.554 597.386 567.04 595.929L576.582 567.151C577.068 565.694 578.676 564.888 580.16 565.362Z" fill="#54D149"/>
<path d="M659.326 553.928L661.069 551.988C662.027 550.918 663.701 550.815 664.791 551.756L686.262 570.351C687.348 571.292 687.453 572.94 686.498 574.007L684.752 575.947C683.793 577.017 682.119 577.12 681.029 576.179L659.556 557.584C658.469 556.642 658.364 554.995 659.326 553.928Z" fill="#54D149"/>
<path d="M762.929 544.648L765.434 547.781C766.812 549.503 766.504 552.017 764.754 553.371L730.141 580.102C728.388 581.456 725.828 581.156 724.449 579.435L721.938 576.305C720.56 574.58 720.868 572.066 722.621 570.712L757.231 543.981C758.984 542.627 761.551 542.927 762.929 544.648Z" fill="#7E411F"/>
<path d="M806.868 548.777L811.145 548.877C813.496 548.935 815.37 550.873 815.314 553.181L814.168 598.749C814.109 601.057 812.14 602.901 809.79 602.843L805.513 602.739C803.162 602.681 801.288 600.747 801.347 598.436L802.489 552.868C802.549 550.56 804.521 548.719 806.868 548.777" fill="#EFDB25"/>
<path d="M907.337 563.473L909.241 566.406C910.285 568.018 909.799 570.181 908.154 571.209L875.73 591.493C874.089 592.522 871.887 592.041 870.843 590.43L868.939 587.496C867.892 585.885 868.381 583.722 870.022 582.697L902.449 562.409C904.091 561.381 906.287 561.861 907.337 563.473Z" fill="#EFDB25"/>
<path d="M965.4 574.497L964.648 571.921C964.235 570.506 965.075 569.014 966.516 568.608L994.971 560.572C996.412 560.166 997.929 560.991 998.342 562.409L999.101 564.981C999.514 566.396 998.674 567.889 997.233 568.295L968.778 576.328C967.333 576.737 965.814 575.912 965.4 574.497Z" fill="#EFDB25"/>
<path d="M58.4098 668.127L55.9634 666.3C54.617 665.292 54.358 663.387 55.3798 662.068L75.6131 635.991C76.6389 634.673 78.5752 634.412 79.9213 635.421L82.3677 637.249C83.7141 638.257 83.9731 640.162 82.9513 641.481L62.718 667.557C61.6923 668.876 59.7524 669.133 58.4098 668.127" fill="#EFDB25"/>
<path d="M156.449 619.862L160.559 621.376C162.819 622.209 163.976 624.703 163.13 626.924L146.413 670.752C145.567 672.973 143.025 674.107 140.762 673.276L136.652 671.764C134.389 670.933 133.235 668.437 134.081 666.216L150.799 622.389C151.645 620.168 154.186 619.033 156.449 619.862" fill="#7E411F"/>
<path d="M215.287 640.111L215.608 636.855C215.783 635.066 217.418 633.741 219.243 633.916L255.232 637.326C257.051 637.5 258.401 639.109 258.224 640.898L257.904 644.151C257.728 645.942 256.093 647.267 254.268 647.093L218.281 643.68C216.458 643.508 215.11 641.903 215.287 640.111" fill="#EFDB25"/>
<path d="M284.028 633.464L285.311 629.271C286.016 626.966 288.514 625.645 290.863 626.338L337.208 640.004C339.554 640.698 340.898 643.15 340.193 645.455L338.911 649.649C338.205 651.953 335.708 653.275 333.361 652.583L287.016 638.912C284.67 638.222 283.323 635.77 284.028 633.464" fill="#E93D3D"/>
<path d="M383.017 669.888L379.452 668.989C377.489 668.493 376.298 666.51 376.8 664.582L386.759 626.547C387.261 624.62 389.283 623.449 391.243 623.943L394.811 624.846C396.774 625.342 397.965 627.321 397.46 629.249L387.504 667.287C386.995 669.212 384.98 670.384 383.017 669.888" fill="#EFDB25"/>
<path d="M486.703 633.239L488.094 636.687C488.863 638.582 487.907 640.752 485.977 641.504L447.852 656.347C445.922 657.098 443.716 656.163 442.948 654.264L441.556 650.818C440.791 648.919 441.746 646.754 443.676 646.004L481.799 631.16C483.729 630.408 485.938 631.344 486.703 633.239" fill="#7E411F"/>
<path d="M533.907 674.456L529.42 672.976C526.952 672.164 525.613 669.514 526.443 667.09L542.803 619.25C543.63 616.825 546.328 615.51 548.797 616.323L553.284 617.802C555.749 618.618 557.095 621.265 556.264 623.688L539.901 671.532C539.074 673.956 536.376 675.27 533.907 674.456" fill="#7E411F"/>
<path d="M609.662 677.466L606.754 676.322C605.149 675.694 604.364 673.892 605.005 672.315L617.672 641.268C618.312 639.695 620.15 638.925 621.748 639.553L624.663 640.7C626.265 641.33 627.049 643.134 626.406 644.704L613.742 675.754C613.102 677.324 611.267 678.097 609.662 677.466" fill="#54D149"/>
<path d="M686.521 664.579L683.376 662.046C681.646 660.653 681.39 658.122 682.808 656.424L710.804 622.878C712.219 621.18 714.799 620.928 716.529 622.321L719.673 624.854C721.403 626.247 721.659 628.774 720.244 630.476L692.245 664.021C690.83 665.72 688.254 665.972 686.521 664.579Z" fill="#E93D3D"/>
<path d="M788.513 643.26L790.23 645.552C791.175 646.812 790.896 648.601 789.616 649.529L764.279 667.848C762.992 668.776 761.17 668.505 760.225 667.245L758.508 664.954C757.563 663.689 757.839 661.901 759.122 660.972L784.459 642.654C785.743 641.725 787.567 642 788.513 643.26" fill="#E93D3D"/>
<path d="M875.054 640.43L876.269 643.417C876.938 645.062 876.115 646.944 874.437 647.599L841.393 660.547C839.716 661.205 837.802 660.395 837.132 658.749L835.918 655.761C835.251 654.116 836.075 652.234 837.749 651.579L870.797 638.631C872.471 637.977 874.388 638.783 875.054 640.43" fill="#F861BB"/>
<path d="M944.616 640.919L946.71 643.041C947.859 644.208 947.832 646.087 946.644 647.219L923.201 669.547C922.013 670.677 920.096 670.652 918.947 669.485L916.853 667.365C915.701 666.197 915.727 664.319 916.919 663.187L940.362 640.859C941.55 639.724 943.464 639.753 944.616 640.919Z" fill="#7E411F"/>
<path d="M0.710658 730.629L0.0528583 726.642C-0.308702 724.449 1.22354 722.364 3.45711 722.009L47.5495 714.998C49.7805 714.647 51.9051 716.149 52.268 718.345L52.9245 722.331C53.2835 724.527 51.7551 726.609 49.5202 726.964L5.42916 733.972C3.19428 734.33 1.06966 732.824 0.710658 730.629Z" fill="#F861BB"/>
<path d="M105.777 731.792L104.236 729.736C103.386 728.602 103.636 726.996 104.79 726.162L127.546 709.713C128.696 708.88 130.335 709.122 131.184 710.258L132.726 712.314C133.575 713.448 133.325 715.054 132.175 715.888L109.416 732.338C108.265 733.169 106.627 732.925 105.777 731.792" fill="#F861BB"/>
<path d="M186.63 749.122L184.226 748.961C182.905 748.87 181.895 747.736 181.985 746.436L183.773 720.794C183.863 719.496 185.021 718.503 186.344 718.593L188.748 718.754C190.073 718.844 191.079 719.98 190.989 721.278L189.201 746.92C189.111 748.219 187.953 749.209 186.63 749.122Z" fill="#E93D3D"/>
<path d="M260.6 720.459L260.771 717.868C260.863 716.44 262.129 715.347 263.581 715.44L292.264 717.252C293.716 717.345 294.829 718.587 294.735 720.015L294.566 722.61C294.472 724.034 293.206 725.127 291.754 725.036L263.071 723.222C261.62 723.128 260.506 721.887 260.6 720.459" fill="#7E411F"/>
<path d="M352.264 747.758L347.786 748.95C345.324 749.605 342.764 748.163 342.093 745.746L328.897 698.005C328.226 695.588 329.694 693.073 332.16 692.416L336.637 691.224C339.099 690.567 341.661 692.007 342.331 694.424L355.527 742.165C356.196 744.583 354.726 747.099 352.264 747.758Z" fill="#E93D3D"/>
<path d="M396.107 738.551L393.938 734.803C392.74 732.743 393.481 730.096 395.582 728.924L437.013 705.78C439.111 704.607 441.805 705.332 443 707.395L445.17 711.14C446.361 713.203 445.623 715.849 443.525 717.019L402.095 740.167C399.994 741.34 397.302 740.611 396.107 738.551Z" fill="#54D149"/>
<path d="M522.928 698.875L525.833 701.458C527.431 702.879 527.556 705.326 526.108 706.892L497.551 737.852C496.107 739.421 493.616 739.541 492.017 738.119L489.115 735.538C487.517 734.117 487.395 731.673 488.843 730.104L517.397 699.146C518.841 697.577 521.332 697.457 522.928 698.875Z" fill="#E93D3D"/>
<path d="M569.558 730.416L568.235 727.583C567.51 726.023 568.212 724.166 569.801 723.453L601.135 709.378C602.721 708.665 604.611 709.355 605.34 710.915L606.656 713.748C607.385 715.308 606.679 717.165 605.094 717.88L573.763 731.954C572.174 732.666 570.28 731.976 569.558 730.416Z" fill="#7E411F"/>
<path d="M647.174 706.625L648.993 703.305C649.991 701.48 652.331 700.787 654.192 701.77L690.903 721.159C692.764 722.141 693.467 724.44 692.465 726.265L690.647 729.584C689.646 731.412 687.309 732.102 685.448 731.119L648.737 711.731C646.876 710.75 646.173 708.452 647.174 706.625Z" fill="#F861BB"/>
<path d="M740.386 717.349L742.851 717.79C744.21 718.032 745.119 719.318 744.873 720.653L740.012 746.952C739.769 748.286 738.456 749.176 737.1 748.934L734.635 748.496C733.273 748.254 732.367 746.965 732.613 745.634L737.471 719.335C737.717 718.003 739.027 717.11 740.386 717.349" fill="#54D149"/>
<path d="M819.945 712.704L823.175 714.254C824.954 715.105 825.7 717.229 824.83 718.976L807.699 753.424C806.832 755.171 804.666 755.899 802.89 755.048L799.66 753.498C797.881 752.647 797.139 750.521 798.006 748.776L815.137 714.325C816.007 712.581 818.17 711.849 819.945 712.704Z" fill="#EFDB25"/>
<path d="M891.519 714.009L891.851 711.008C892.034 709.357 893.558 708.155 895.238 708.333L928.417 711.866C930.094 712.043 931.319 713.542 931.141 715.192L930.807 718.193C930.626 719.844 929.103 721.046 927.422 720.868L894.247 717.335C892.563 717.155 891.339 715.659 891.519 714.009" fill="#E93D3D"/>
<path d="M996.744 709.845L998.425 713.429C999.347 715.399 998.464 717.754 996.455 718.664L956.83 736.58C954.821 737.485 952.421 736.615 951.499 734.646L949.818 731.061C948.893 729.088 949.779 726.735 951.788 725.825L991.413 707.911C993.419 707.005 995.822 707.875 996.744 709.845" fill="#EFDB25"/>
<path d="M50.3831 817.639L47.5135 814.545C45.9364 812.843 46.0621 810.184 47.7956 808.634L82.0049 778.035C83.7357 776.483 86.445 776.607 88.0249 778.308L90.8944 781.403C92.4739 783.105 92.3459 785.767 90.6147 787.314L56.4055 817.917C54.672 819.467 51.9628 819.341 50.3831 817.639Z" fill="#7E411F"/>
<path d="M129.575 826.478L125.456 823.815C123.193 822.352 122.558 819.331 124.052 817.108L153.491 773.209C154.985 770.985 158.056 770.363 160.322 771.826L164.438 774.489C166.705 775.956 167.336 778.973 165.846 781.197L136.402 825.098C134.912 827.323 131.838 827.945 129.575 826.478" fill="#54D149"/>
<path d="M195.672 815.938L193.74 811.986C192.676 809.814 193.614 807.18 195.826 806.132L239.523 785.503C241.735 784.459 244.419 785.381 245.483 787.552L247.415 791.505C248.48 793.681 247.541 796.313 245.329 797.358L201.634 817.99C199.42 819.035 196.736 818.114 195.672 815.938Z" fill="#7E411F"/>
<path d="M329.803 770.167L332.968 773.861C334.705 775.891 334.436 778.946 332.369 780.655L291.555 814.364C289.488 816.073 286.372 815.808 284.635 813.779L281.474 810.087C279.733 808.057 280.002 804.997 282.071 803.293L322.883 769.58C324.95 767.871 328.066 768.136 329.803 770.167Z" fill="#EFDB25"/>
<path d="M358.93 831.584L355.691 829.024C353.912 827.619 353.626 825.04 355.057 823.29L383.326 788.775C384.76 787.027 387.386 786.747 389.165 788.153L392.405 790.709C394.184 792.117 394.469 794.699 393.038 796.446L364.77 830.962C363.339 832.708 360.713 832.989 358.93 831.584" fill="#E93D3D"/>
<path d="M451.055 772.119L455.982 772.02C458.69 771.965 460.955 774.095 461.008 776.758L462.107 829.286C462.167 831.945 459.994 834.166 457.282 834.221L452.355 834.32C449.647 834.375 447.386 832.245 447.33 829.582L446.23 777.058C446.174 774.395 448.347 772.175 451.055 772.119Z" fill="#E93D3D"/>
<path d="M536.375 789.713L537.531 786.922C538.164 785.387 539.963 784.643 541.522 785.265L572.364 797.568C573.93 798.189 574.688 799.954 574.055 801.487L572.899 804.279C572.266 805.814 570.467 806.558 568.904 805.936L538.063 793.633C536.5 793.01 535.742 791.244 536.375 789.713" fill="#EFDB25"/>
<path d="M645.793 787.699L647.056 790.976C647.752 792.782 646.817 794.815 644.979 795.495L608.727 808.957C606.893 809.64 604.821 808.721 604.125 806.919L602.865 803.638C602.169 801.836 603.101 799.801 604.939 799.121L641.194 785.658C643.029 784.978 645.1 785.897 645.793 787.699Z" fill="#F861BB"/>
<path d="M679.231 795.898L680.084 792.255C680.553 790.254 682.605 788.994 684.647 789.455L724.906 798.551C726.944 799.012 728.228 801.026 727.761 803.032L726.908 806.671C726.435 808.676 724.384 809.936 722.345 809.475L682.086 800.379C680.048 799.918 678.761 797.9 679.231 795.898" fill="#EFDB25"/>
<path d="M788.191 823.812L783.665 825.373C781.177 826.226 778.426 824.928 777.556 822.488L760.327 774.241C759.454 771.801 760.773 769.099 763.265 768.241L767.788 766.681C770.279 765.824 773.03 767.123 773.9 769.567L791.126 817.81C792.002 820.254 790.679 822.955 788.191 823.812" fill="#54D149"/>
<path d="M840.802 810.085L840.759 807.551C840.733 806.159 841.872 804.998 843.293 804.975L871.296 804.495C872.717 804.473 873.895 805.591 873.922 806.987L873.968 809.517C873.994 810.909 872.851 812.07 871.43 812.095L843.428 812.572C842.006 812.599 840.828 811.477 840.802 810.085" fill="#7E411F"/>
<path d="M930.81 777.516L933.314 775.22C934.689 773.954 936.869 774.025 938.156 775.376L963.572 802.055C964.855 803.405 964.786 805.545 963.408 806.809L960.906 809.107C959.531 810.371 957.351 810.3 956.065 808.95L930.649 782.273C929.362 780.922 929.434 778.783 930.81 777.516Z" fill="#EFDB25"/>
<path d="M1087.12 5.35917L1089.81 8.44393C1091.29 10.1394 1091.09 12.718 1089.36 14.175L1055.25 42.8853C1053.52 44.339 1050.89 44.1424 1049.41 42.4437L1046.72 39.359C1045.24 37.6603 1045.44 35.0816 1047.17 33.6279L1081.29 4.91753C1083.02 3.46381 1085.64 3.66047 1087.12 5.35917Z" fill="#54D149"/>
<path d="M1130.06 34.2822L1128.13 30.9073C1127.07 29.0507 1127.74 26.6815 1129.64 25.6372L1166.95 5.05616C1168.84 4.0118 1171.26 4.67897 1172.32 6.5324L1174.25 9.91045C1175.31 11.7639 1174.63 14.1363 1172.74 15.1806L1135.43 35.7617C1133.54 36.8061 1131.12 36.1388 1130.06 34.2822" fill="#EFDB25"/>
<path d="M1203.6 32.6962L1203.16 29.2955C1202.91 27.426 1204.27 25.6982 1206.18 25.4597L1243.76 20.7407C1245.67 20.5054 1247.43 21.8367 1247.67 23.7062L1248.11 27.1101C1248.36 28.9796 1247 30.7041 1245.09 30.9426L1207.5 35.6616C1205.6 35.9001 1203.84 34.5657 1203.6 32.6962" fill="#54D149"/>
<path d="M1293.08 43.2012L1291.59 41.1737C1290.77 40.0617 1291.03 38.4919 1292.17 37.6893L1314.56 21.8337C1315.69 21.031 1317.29 21.2857 1318.11 22.3977L1319.6 24.422C1320.41 25.5373 1320.16 27.1071 1319.02 27.9097L1296.63 43.7653C1295.5 44.5679 1293.9 44.3133 1293.08 43.2012" fill="#7E411F"/>
<path d="M1393.65 21.3051L1395.56 23.0618C1396.61 24.0288 1396.67 25.6631 1395.68 26.6945L1376.25 47.0693C1375.27 48.1007 1373.61 48.1556 1372.56 47.1886L1370.65 45.4319C1369.59 44.4649 1369.54 42.8306 1370.52 41.7991L1389.95 21.4243C1390.94 20.3929 1392.6 20.3381 1393.65 21.3051Z" fill="#7E411F"/>
<path d="M1447.87 56.5878L1444.37 54.8955C1442.44 53.964 1441.64 51.6529 1442.59 49.7608L1461.31 12.4022C1462.26 10.5101 1464.62 9.72361 1466.54 10.6552L1470.04 12.3506C1471.97 13.2822 1472.77 15.5933 1471.82 17.4854L1453.1 54.8408C1452.15 56.7329 1449.8 57.5193 1447.87 56.5878Z" fill="#54D149"/>
<path d="M1534.22 16.1087L1537.48 16.3085C1539.27 16.4214 1540.65 17.9525 1540.54 19.7124L1538.32 54.4601C1538.2 56.22 1536.64 57.5705 1534.85 57.4609L1531.59 57.2579C1529.8 57.1483 1528.43 55.6172 1528.54 53.8573L1530.76 19.1096C1530.87 17.3464 1532.43 15.9991 1534.22 16.1087" fill="#EFDB25"/>
<path d="M1625.19 16.8116L1628.02 18.8746C1629.57 20.0092 1629.9 22.1882 1628.75 23.716L1605.94 53.8607C1604.78 55.3886 1602.57 55.7109 1601.01 54.5763L1598.18 52.5134C1596.63 51.3788 1596.3 49.1998 1597.46 47.6751L1620.26 17.5272C1621.42 15.9994 1623.64 15.677 1625.19 16.8116" fill="#E93D3D"/>
<path d="M1028.99 82.1296L1032.06 81.4366C1033.75 81.053 1035.44 82.0973 1035.83 83.7541L1043.5 116.442C1043.89 118.096 1042.83 119.762 1041.14 120.146L1038.07 120.839C1036.39 121.222 1034.69 120.178 1034.3 118.521L1026.63 85.8364C1026.25 84.1796 1027.31 82.5131 1028.99 82.1296" fill="#EFDB25"/>
<path d="M1099.45 115.752L1097.43 113.425C1096.32 112.145 1096.48 110.208 1097.78 109.115L1123.5 87.6123C1124.8 86.5228 1126.78 86.6807 1127.89 87.9604L1129.9 90.2844C1131.01 91.5641 1130.85 93.5046 1129.55 94.5909L1103.83 116.094C1102.53 117.183 1100.56 117.029 1099.45 115.752" fill="#54D149"/>
<path d="M1183.57 122.763L1181.41 121.461C1180.22 120.745 1179.84 119.204 1180.57 118.034L1194.97 94.955C1195.7 93.7849 1197.27 93.4142 1198.46 94.133L1200.63 95.4353C1201.82 96.1508 1202.19 97.6916 1201.46 98.8617L1187.07 121.941C1186.34 123.111 1184.77 123.478 1183.57 122.763" fill="#EFDB25"/>
<path d="M1275.86 98.0366L1277.79 99.7159C1278.86 100.638 1278.95 102.25 1278.02 103.294L1259.45 123.917C1258.5 124.961 1256.87 125.058 1255.8 124.136L1253.86 122.457C1252.8 121.532 1252.7 119.923 1253.64 118.875L1272.21 98.2558C1273.15 97.2114 1274.79 97.1115 1275.86 98.0366" fill="#EFDB25"/>
<path d="M1358.37 119.359L1355.87 120.565C1354.5 121.232 1352.82 120.671 1352.15 119.327L1338.8 92.7471C1338.12 91.3997 1338.69 89.7526 1340.06 89.0886L1342.56 87.8831C1343.93 87.2191 1345.6 87.7767 1346.28 89.124L1359.63 115.704C1360.3 117.051 1359.74 118.695 1358.37 119.359Z" fill="#54D149"/>
<path d="M1411.31 94.1624L1413.93 92.8795C1415.38 92.1736 1417.14 92.7602 1417.86 94.1785L1432.02 122.176C1432.74 123.591 1432.15 125.329 1430.7 126.035L1428.08 127.314C1426.63 128.02 1424.86 127.437 1424.15 126.015L1409.98 98.0207C1409.27 96.6024 1409.86 94.865 1411.31 94.1624Z" fill="#7E411F"/>
<path d="M1498.6 85.269L1500.48 82.9031C1501.51 81.6009 1503.44 81.3623 1504.76 82.3777L1530.94 102.388C1532.27 103.404 1532.51 105.299 1531.47 106.601L1529.6 108.967C1528.57 110.269 1526.64 110.505 1525.31 109.492L1499.13 89.4819C1497.81 88.4666 1497.57 86.5712 1498.6 85.269" fill="#54D149"/>
<path d="M1564.81 128.732L1561.61 126.55C1559.84 125.351 1559.4 122.95 1560.62 121.216L1584.74 86.9902C1585.96 85.2561 1588.41 84.8209 1590.17 86.02L1593.38 88.2022C1595.14 89.4045 1595.59 91.8027 1594.37 93.5368L1570.25 127.762C1569.02 129.496 1566.58 129.932 1564.81 128.732Z" fill="#7E411F"/>
<path d="M1072.75 200.388L1069.54 199.862C1067.77 199.575 1066.57 197.922 1066.86 196.184L1072.66 161.914C1072.95 160.18 1074.63 158.993 1076.4 159.28L1079.62 159.806C1081.38 160.092 1082.59 161.749 1082.3 163.487L1076.5 197.757C1076.21 199.491 1074.52 200.674 1072.75 200.388" fill="#EFDB25"/>
<path d="M1124.15 181.37L1122.54 176.986C1121.65 174.575 1122.94 171.89 1125.39 171.02L1173.87 153.868C1176.33 152.998 1179.06 154.261 1179.95 156.673L1181.56 161.056C1182.44 163.467 1181.15 166.152 1178.7 167.019L1130.22 184.174C1127.77 185.041 1125.03 183.781 1124.15 181.37" fill="#7E411F"/>
<path d="M1202.72 203.23L1200.46 200.442C1199.22 198.908 1199.48 196.655 1201.04 195.433L1231.86 171.326C1233.42 170.104 1235.72 170.359 1236.96 171.89L1239.22 174.678C1240.47 176.212 1240.21 178.465 1238.65 179.687L1207.82 203.794C1206.26 205.016 1203.97 204.761 1202.72 203.23Z" fill="#54D149"/>
<path d="M1284.14 194.167L1282.62 191.079C1281.78 189.38 1282.52 187.317 1284.25 186.498L1318.4 170.317C1320.13 169.498 1322.23 170.217 1323.06 171.916L1324.58 175.004C1325.42 176.706 1324.68 178.765 1322.96 179.584L1288.8 195.765C1287.07 196.584 1284.97 195.865 1284.14 194.167Z" fill="#F861BB"/>
<path d="M1361.46 176.499L1362.31 172.767C1362.78 170.713 1364.88 169.408 1366.97 169.869L1408.26 178.942C1410.36 179.4 1411.68 181.457 1411.21 183.513L1410.36 187.246C1409.9 189.302 1407.8 190.605 1405.71 190.147L1364.42 181.07C1362.32 180.612 1361 178.556 1361.46 176.499" fill="#EFDB25"/>
<path d="M1457.39 178.607L1456.7 175.8C1456.32 174.256 1457.3 172.686 1458.87 172.312L1489.91 164.934C1491.48 164.56 1493.08 165.517 1493.46 167.061L1494.16 169.869C1494.53 171.413 1493.56 172.983 1491.99 173.357L1460.95 180.735C1459.37 181.109 1457.77 180.151 1457.39 178.607Z" fill="#54D149"/>
<path d="M1525.48 152.84L1530.08 151.88C1532.6 151.348 1535.11 152.947 1535.65 155.429L1546.3 204.43C1546.84 206.915 1545.21 209.378 1542.68 209.906L1538.09 210.87C1535.56 211.399 1533.05 209.803 1532.51 207.321L1521.86 158.317C1521.33 155.835 1522.95 153.372 1525.48 152.84" fill="#EFDB25"/>
<path d="M1598.04 206.589L1594.05 203.688C1591.86 202.093 1591.4 199.024 1593.02 196.871L1625.1 154.368C1626.73 152.215 1629.85 151.76 1632.04 153.356L1636.03 156.257C1638.22 157.852 1638.69 160.921 1637.06 163.074L1604.98 205.577C1603.35 207.73 1600.23 208.185 1598.04 206.589Z" fill="#54D149"/>
<path d="M1042.9 234.442L1046.37 237.537C1048.27 239.239 1048.41 242.165 1046.68 244.035L1012.45 280.974C1010.71 282.847 1007.74 282.986 1005.83 281.281L1002.37 278.186C1000.46 276.484 1000.32 273.561 1002.06 271.688L1036.28 234.749C1038.02 232.876 1040.99 232.737 1042.9 234.442Z" fill="#7E411F"/>
<path d="M1107.13 239.464L1111.24 240.789C1113.5 241.521 1114.74 243.932 1114 246.153L1099.34 289.996C1098.6 292.217 1096.14 293.439 1093.88 292.711L1089.77 291.386C1087.51 290.657 1086.26 288.24 1087.01 286.022L1101.66 242.175C1102.41 239.954 1104.87 238.736 1107.13 239.464Z" fill="#7E411F"/>
<path d="M1166.54 299.135L1161.79 297.794C1159.17 297.056 1157.65 294.355 1158.4 291.789L1173.23 241.131C1173.98 238.565 1176.73 237.069 1179.34 237.807L1184.09 239.148C1186.71 239.883 1188.23 242.588 1187.48 245.153L1172.66 295.808C1171.9 298.377 1169.15 299.873 1166.54 299.135" fill="#54D149"/>
<path d="M1277.25 277.68L1274.47 279.227C1272.94 280.075 1270.98 279.543 1270.11 278.041L1253.02 248.373C1252.16 246.871 1252.7 244.947 1254.23 244.096L1257.02 242.552C1258.54 241.701 1260.51 242.233 1261.37 243.738L1278.46 273.403C1279.33 274.905 1278.78 276.832 1277.25 277.68Z" fill="#F861BB"/>
<path d="M1375.63 235.699L1377.2 240.054C1378.06 242.449 1376.76 245.099 1374.33 245.946L1326.17 262.611C1323.73 263.455 1321.03 262.189 1320.17 259.791L1318.61 255.436C1317.75 253.041 1319.04 250.391 1321.48 249.547L1369.63 232.879C1372.07 232.034 1374.77 233.304 1375.63 235.699Z" fill="#E93D3D"/>
<path d="M1431.59 238.4L1434.5 238.716C1436.09 238.89 1437.26 240.318 1437.08 241.885L1433.58 272.855C1433.41 274.421 1431.95 275.565 1430.36 275.388L1427.45 275.072C1425.85 274.898 1424.69 273.474 1424.87 271.904L1428.37 240.937C1428.54 239.367 1429.99 238.226 1431.59 238.4" fill="#F861BB"/>
<path d="M1491.95 259.349L1491.45 256.502C1491.18 254.936 1492.26 253.437 1493.85 253.17L1525.33 247.886C1526.92 247.619 1528.45 248.679 1528.72 250.246L1529.22 253.092C1529.49 254.659 1528.41 256.158 1526.81 256.425L1495.34 261.711C1493.75 261.976 1492.22 260.915 1491.95 259.349" fill="#F861BB"/>
<path d="M1544.82 271.594L1542.83 267.117C1541.73 264.651 1542.88 261.753 1545.39 260.674L1594.93 239.38C1597.44 238.3 1600.39 239.435 1601.49 241.898L1603.49 246.378C1604.58 248.841 1603.43 251.742 1600.92 252.822L1551.38 274.115C1548.88 275.195 1545.92 274.06 1544.82 271.594Z" fill="#7E411F"/>
<path d="M1063.88 303.715L1068.8 304.166C1071.5 304.418 1073.51 306.796 1073.26 309.456L1068.24 361.919C1067.99 364.578 1065.57 366.551 1062.86 366.299L1057.94 365.845C1055.24 365.597 1053.23 363.218 1053.48 360.562L1058.5 308.095C1058.75 305.436 1061.17 303.463 1063.88 303.715" fill="#54D149"/>
<path d="M1119.29 319.935L1121.61 315.828C1122.88 313.572 1125.8 312.744 1128.1 313.994L1173.5 338.662C1175.8 339.91 1176.64 342.782 1175.37 345.038L1173.06 349.148C1171.78 351.404 1168.86 352.229 1166.56 350.979L1121.16 326.314C1118.86 325.063 1118.02 322.194 1119.29 319.935Z" fill="#54D149"/>
<path d="M1219.27 352.162L1217.37 350.382C1216.32 349.402 1216.28 347.762 1217.27 346.734L1236.94 326.426C1237.94 325.398 1239.61 325.356 1240.66 326.333L1242.56 328.112C1243.61 329.092 1243.65 330.733 1242.66 331.764L1222.99 352.068C1221.99 353.1 1220.32 353.138 1219.27 352.162" fill="#EFDB25"/>
<path d="M1304.53 338.108L1303.51 335.961C1302.95 334.781 1303.48 333.37 1304.68 332.818L1328.4 321.998C1329.6 321.45 1331.04 321.965 1331.6 323.148L1332.62 325.292C1333.17 326.472 1332.65 327.887 1331.44 328.435L1307.73 339.256C1306.52 339.803 1305.09 339.288 1304.53 338.108Z" fill="#EFDB25"/>
<path d="M1381.93 349.996L1379.37 348.268C1377.96 347.317 1377.6 345.409 1378.56 344.026L1397.65 316.724C1398.62 315.341 1400.56 314.984 1401.97 315.935L1404.53 317.662C1405.94 318.61 1406.3 320.521 1405.33 321.901L1386.25 349.206C1385.28 350.589 1383.34 350.943 1381.93 349.996Z" fill="#7E411F"/>
<path d="M1432.91 363.024L1429.67 359.849C1427.89 358.102 1427.89 355.246 1429.67 353.499L1464.76 319.01C1466.54 317.263 1469.45 317.263 1471.23 319.006L1474.47 322.181C1476.24 323.928 1476.24 326.784 1474.47 328.531L1439.38 363.021C1437.6 364.768 1434.69 364.768 1432.91 363.024Z" fill="#7E411F"/>
<path d="M1536.52 355.301L1533.24 353.58C1531.44 352.633 1530.75 350.412 1531.72 348.642L1550.75 313.711C1551.71 311.941 1553.98 311.267 1555.78 312.215L1559.05 313.936C1560.86 314.884 1561.54 317.105 1560.58 318.874L1541.55 353.806C1540.58 355.575 1538.32 356.249 1536.52 355.301" fill="#7E411F"/>
<path d="M1006.2 414.305L1006.05 410.556C1005.96 408.493 1007.62 406.74 1009.71 406.656L1051.17 405.009C1053.27 404.922 1055.05 406.543 1055.14 408.603L1055.29 412.351C1055.38 414.418 1053.73 416.171 1051.63 416.255L1010.18 417.902C1008.08 417.986 1006.29 416.368 1006.2 414.305" fill="#54D149"/>
<path d="M1098.36 389.017L1100.99 386.368C1102.44 384.914 1104.84 384.888 1106.33 386.313L1135.59 414.43C1137.08 415.852 1137.1 418.208 1135.65 419.665L1133.01 422.311C1131.57 423.768 1129.16 423.794 1127.68 422.369L1098.41 394.252C1096.93 392.827 1096.9 390.471 1098.36 389.017" fill="#54D149"/>
<path d="M1172.23 405.382L1174.56 403.571C1175.84 402.578 1177.71 402.791 1178.73 404.045L1198.74 428.832C1199.75 430.086 1199.54 431.93 1198.26 432.923L1195.93 434.734C1194.66 435.73 1192.78 435.517 1191.76 434.26L1171.75 409.476C1170.74 408.219 1170.95 406.378 1172.23 405.382Z" fill="#F861BB"/>
<path d="M1256.46 392.225L1259.44 390.461C1261.08 389.494 1263.23 390.02 1264.22 391.628L1283.69 423.401C1284.67 425.009 1284.14 427.12 1282.5 428.087L1279.52 429.847C1277.88 430.818 1275.73 430.292 1274.75 428.684L1255.28 396.911C1254.29 395.303 1254.82 393.195 1256.46 392.225" fill="#EFDB25"/>
<path d="M1330.28 376.491L1334.62 374.342C1337 373.155 1339.94 374.103 1341.14 376.443L1364.93 422.643C1366.13 424.983 1365.17 427.865 1362.78 429.051L1358.45 431.201C1356.06 432.384 1353.13 431.437 1351.93 429.096L1328.14 382.896C1326.94 380.556 1327.9 377.674 1330.28 376.491" fill="#54D149"/>
<path d="M1418.41 397.063L1419.54 393.93C1420.17 392.205 1422.11 391.296 1423.87 391.909L1458.51 403.99C1460.27 404.602 1461.2 406.511 1460.57 408.238L1459.44 411.371C1458.82 413.093 1456.87 414.005 1455.12 413.392L1420.47 401.311C1418.71 400.699 1417.78 398.787 1418.41 397.063Z" fill="#54D149"/>
<path d="M1521.31 394.977L1523.63 399.016C1524.9 401.237 1524.1 404.08 1521.83 405.331L1477.19 430.047C1474.92 431.298 1472.03 430.505 1470.76 428.284L1468.44 424.245C1467.16 422.024 1467.97 419.185 1470.23 417.931L1514.88 393.217C1517.14 391.964 1520.04 392.757 1521.31 394.977Z" fill="#EFDB25"/>
<path d="M1561.78 420.119L1561.64 417.183C1561.56 415.571 1562.84 414.185 1564.49 414.108L1596.92 412.577C1598.57 412.499 1599.98 413.76 1600.05 415.371L1600.2 418.305C1600.28 419.92 1599 421.302 1597.36 421.38L1564.91 422.911C1563.27 422.988 1561.86 421.731 1561.78 420.119Z" fill="#F861BB"/>
<path d="M1075.21 473.849L1078.64 476.966C1080.52 478.684 1080.64 481.601 1078.89 483.455L1044.4 520.008C1042.65 521.858 1039.68 521.971 1037.8 520.256L1034.37 517.136C1032.48 515.421 1032.37 512.5 1034.11 510.65L1068.61 474.094C1070.35 472.244 1073.32 472.131 1075.21 473.849Z" fill="#E93D3D"/>
<path d="M1128.16 520.965L1125.14 519.028C1123.48 517.964 1123.01 515.756 1124.1 514.125L1145.52 481.924C1146.61 480.293 1148.86 479.832 1150.52 480.896L1153.54 482.833C1155.2 483.9 1155.67 486.108 1154.58 487.739L1133.16 519.937C1132.07 521.568 1129.82 522.032 1128.16 520.965Z" fill="#54D149"/>
<path d="M1225.65 518.731L1220.86 518.999C1218.23 519.147 1215.95 517.152 1215.8 514.563L1212.86 463.525C1212.71 460.94 1214.74 458.703 1217.37 458.555L1222.16 458.29C1224.79 458.145 1227.07 460.14 1227.22 462.726L1230.16 513.764C1230.31 516.352 1228.28 518.586 1225.65 518.731Z" fill="#54D149"/>
<path d="M1292.69 500.69L1290.16 497.734C1288.77 496.107 1288.99 493.663 1290.65 492.297L1323.33 465.375C1324.99 464.012 1327.48 464.224 1328.87 465.852L1331.39 468.808C1332.78 470.436 1332.56 472.879 1330.91 474.243L1298.22 501.167C1296.57 502.531 1294.08 502.318 1292.69 500.69" fill="#EFDB25"/>
<path d="M1371.18 474.717L1372.22 470.923C1372.79 468.84 1374.99 467.59 1377.12 468.151L1419.03 479.184C1421.16 479.742 1422.43 481.908 1421.86 483.993L1420.82 487.784C1420.25 489.869 1418.05 491.117 1415.93 490.559L1374.01 479.522C1371.89 478.965 1370.61 476.802 1371.18 474.717Z" fill="#7E411F"/>
<path d="M1445.35 455.428L1449.3 452.572C1451.48 450.999 1454.56 451.46 1456.17 453.597L1487.75 495.762C1489.35 497.899 1488.88 500.932 1486.7 502.505L1482.75 505.361C1480.57 506.931 1477.49 506.47 1475.88 504.333L1444.3 462.168C1442.7 460.031 1443.17 456.998 1445.35 455.428Z" fill="#54D149"/>
<path d="M1527.64 478.665L1530.16 476.763C1531.54 475.716 1533.54 475.97 1534.61 477.327L1555.65 504.11C1556.71 505.467 1556.45 507.433 1555.07 508.481L1552.56 510.383C1551.18 511.43 1549.18 511.176 1548.11 509.819L1527.07 483.036C1526 481.679 1526.26 479.713 1527.64 478.665Z" fill="#7E411F"/>
<path d="M1022.69 557.653L1023.42 554.668C1023.82 553.031 1025.51 552.009 1027.18 552.402L1060.15 560.141C1061.82 560.531 1062.86 562.195 1062.46 563.835L1061.74 566.817C1061.34 568.458 1059.64 569.479 1057.97 569.086L1025 561.347C1023.34 560.957 1022.29 559.29 1022.69 557.653" fill="#F861BB"/>
<path d="M1104.51 600.04L1100.41 600.698C1098.16 601.059 1096.01 599.544 1095.64 597.329L1088.37 553.634C1088 551.422 1089.54 549.314 1091.79 548.95L1095.89 548.293C1098.15 547.932 1100.29 549.447 1100.66 551.661L1107.94 595.353C1108.31 597.568 1106.77 599.676 1104.51 600.04" fill="#54D149"/>
<path d="M1192.84 546.932L1195.55 546.52C1197.05 546.294 1198.46 547.306 1198.69 548.776L1203.25 577.731C1203.48 579.198 1202.45 580.584 1200.95 580.813L1198.24 581.225C1196.75 581.451 1195.34 580.436 1195.11 578.969L1190.54 550.014C1190.31 548.544 1191.34 547.161 1192.84 546.932Z" fill="#EFDB25"/>
<path d="M1261.63 571.468L1260.63 569.151C1260.08 567.874 1260.69 566.388 1261.99 565.847L1287.65 555.193C1288.94 554.655 1290.46 555.255 1291.01 556.531L1292.01 558.852C1292.56 560.128 1291.94 561.614 1290.64 562.156L1264.99 572.809C1263.69 573.347 1262.18 572.745 1261.63 571.468Z" fill="#F861BB"/>
<path d="M1346.94 587.388L1344.3 586.663C1342.86 586.263 1342 584.774 1342.41 583.35L1350.42 555.252C1350.83 553.827 1352.35 552.989 1353.8 553.389L1356.43 554.111C1357.88 554.514 1358.73 556.003 1358.33 557.424L1350.31 585.525C1349.91 586.95 1348.39 587.785 1346.94 587.388Z" fill="#54D149"/>
<path d="M1387.77 587.511L1385.21 583.427C1383.8 581.177 1384.52 578.208 1386.81 576.826L1432 549.543C1434.29 548.16 1437.31 548.87 1438.72 551.116L1441.28 555.203C1442.68 557.45 1441.96 560.419 1439.67 561.802L1394.49 589.087C1392.2 590.467 1389.17 589.761 1387.77 587.511Z" fill="#EFDB25"/>
<path d="M1526.55 547.274L1528.59 550.891C1529.71 552.879 1528.97 555.403 1526.94 556.506L1486.98 578.228C1484.96 579.33 1482.39 578.605 1481.27 576.616L1479.23 573.003C1478.11 571.014 1478.85 568.487 1480.87 567.388L1520.83 545.662C1522.86 544.563 1525.43 545.288 1526.55 547.274Z" fill="#EFDB25"/>
<path d="M1580.16 563.362L1582.86 564.225C1584.34 564.699 1585.16 566.282 1584.68 567.739L1575.14 596.517C1574.65 597.974 1573.04 598.78 1571.56 598.303L1568.86 597.442C1567.37 596.965 1566.55 595.386 1567.04 593.929L1576.58 565.151C1577.07 563.694 1578.68 562.888 1580.16 563.362Z" fill="#54D149"/>
<path d="M1058.41 666.127L1055.96 664.3C1054.62 663.292 1054.36 661.387 1055.38 660.068L1075.61 633.991C1076.64 632.673 1078.58 632.412 1079.92 633.421L1082.37 635.249C1083.71 636.257 1083.97 638.162 1082.95 639.481L1062.72 665.557C1061.69 666.876 1059.75 667.133 1058.41 666.127" fill="#EFDB25"/>
<path d="M1156.45 617.862L1160.56 619.376C1162.82 620.209 1163.98 622.703 1163.13 624.924L1146.41 668.752C1145.57 670.973 1143.02 672.107 1140.76 671.276L1136.65 669.764C1134.39 668.933 1133.24 666.437 1134.08 664.216L1150.8 620.389C1151.64 618.168 1154.19 617.033 1156.45 617.862" fill="#7E411F"/>
<path d="M1215.29 638.111L1215.61 634.855C1215.78 633.066 1217.42 631.741 1219.24 631.916L1255.23 635.326C1257.05 635.5 1258.4 637.109 1258.22 638.898L1257.9 642.151C1257.73 643.942 1256.09 645.267 1254.27 645.093L1218.28 641.68C1216.46 641.508 1215.11 639.903 1215.29 638.111" fill="#EFDB25"/>
<path d="M1284.03 631.464L1285.31 627.271C1286.02 624.966 1288.51 623.645 1290.86 624.338L1337.21 638.004C1339.55 638.698 1340.9 641.15 1340.19 643.455L1338.91 647.649C1338.21 649.953 1335.71 651.275 1333.36 650.583L1287.02 636.912C1284.67 636.222 1283.32 633.77 1284.03 631.464" fill="#E93D3D"/>
<path d="M1383.02 667.888L1379.45 666.989C1377.49 666.493 1376.3 664.51 1376.8 662.582L1386.76 624.547C1387.26 622.62 1389.28 621.449 1391.24 621.943L1394.81 622.846C1396.77 623.342 1397.97 625.321 1397.46 627.249L1387.5 665.287C1387 667.212 1384.98 668.384 1383.02 667.888" fill="#EFDB25"/>
<path d="M1486.7 631.239L1488.09 634.687C1488.86 636.582 1487.91 638.752 1485.98 639.504L1447.85 654.347C1445.92 655.098 1443.72 654.163 1442.95 652.264L1441.56 648.818C1440.79 646.919 1441.75 644.754 1443.68 644.004L1481.8 629.16C1483.73 628.408 1485.94 629.344 1486.7 631.239" fill="#7E411F"/>
<path d="M1533.91 672.456L1529.42 670.976C1526.95 670.164 1525.61 667.514 1526.44 665.09L1542.8 617.25C1543.63 614.825 1546.33 613.51 1548.8 614.323L1553.28 615.802C1555.75 616.618 1557.09 619.265 1556.26 621.688L1539.9 669.532C1539.07 671.956 1536.38 673.27 1533.91 672.456" fill="#7E411F"/>
<path d="M1000.71 728.629L1000.05 724.642C999.691 722.449 1001.22 720.364 1003.46 720.009L1047.55 712.998C1049.78 712.647 1051.91 714.149 1052.27 716.345L1052.92 720.331C1053.28 722.527 1051.76 724.609 1049.52 724.964L1005.43 731.972C1003.19 732.33 1001.07 730.824 1000.71 728.629Z" fill="#F861BB"/>
<path d="M1105.78 729.792L1104.24 727.736C1103.39 726.602 1103.64 724.996 1104.79 724.162L1127.55 707.713C1128.7 706.88 1130.34 707.122 1131.18 708.258L1132.73 710.314C1133.58 711.448 1133.32 713.054 1132.17 713.888L1109.42 730.338C1108.26 731.169 1106.63 730.925 1105.78 729.792" fill="#F861BB"/>
<path d="M1186.63 747.122L1184.23 746.961C1182.9 746.87 1181.89 745.736 1181.98 744.436L1183.77 718.794C1183.86 717.496 1185.02 716.503 1186.34 716.593L1188.75 716.754C1190.07 716.844 1191.08 717.98 1190.99 719.278L1189.2 744.92C1189.11 746.219 1187.95 747.209 1186.63 747.122Z" fill="#E93D3D"/>
<path d="M1260.6 718.459L1260.77 715.868C1260.86 714.44 1262.13 713.347 1263.58 713.44L1292.26 715.252C1293.72 715.345 1294.83 716.587 1294.74 718.015L1294.57 720.61C1294.47 722.034 1293.21 723.127 1291.75 723.036L1263.07 721.222C1261.62 721.128 1260.51 719.887 1260.6 718.459" fill="#7E411F"/>
<path d="M1352.26 745.758L1347.79 746.95C1345.32 747.605 1342.76 746.163 1342.09 743.746L1328.9 696.005C1328.23 693.588 1329.69 691.073 1332.16 690.416L1336.64 689.224C1339.1 688.567 1341.66 690.007 1342.33 692.424L1355.53 740.165C1356.2 742.583 1354.73 745.099 1352.26 745.758Z" fill="#E93D3D"/>
<path d="M1396.11 736.551L1393.94 732.803C1392.74 730.743 1393.48 728.096 1395.58 726.924L1437.01 703.78C1439.11 702.607 1441.81 703.332 1443 705.395L1445.17 709.14C1446.36 711.203 1445.62 713.849 1443.53 715.019L1402.09 738.167C1399.99 739.34 1397.3 738.611 1396.11 736.551Z" fill="#54D149"/>
<path d="M1522.93 696.875L1525.83 699.458C1527.43 700.879 1527.56 703.326 1526.11 704.892L1497.55 735.852C1496.11 737.421 1493.62 737.541 1492.02 736.119L1489.12 733.538C1487.52 732.117 1487.4 729.673 1488.84 728.104L1517.4 697.146C1518.84 695.577 1521.33 695.457 1522.93 696.875Z" fill="#E93D3D"/>
<path d="M1569.56 728.416L1568.24 725.583C1567.51 724.023 1568.21 722.166 1569.8 721.453L1601.14 707.378C1602.72 706.665 1604.61 707.355 1605.34 708.915L1606.66 711.748C1607.38 713.308 1606.68 715.165 1605.09 715.88L1573.76 729.954C1572.17 730.666 1570.28 729.976 1569.56 728.416Z" fill="#7E411F"/>
<path d="M1050.38 815.639L1047.51 812.545C1045.94 810.843 1046.06 808.184 1047.8 806.634L1082 776.035C1083.74 774.483 1086.45 774.607 1088.02 776.308L1090.89 779.403C1092.47 781.105 1092.35 783.767 1090.61 785.314L1056.41 815.917C1054.67 817.467 1051.96 817.341 1050.38 815.639Z" fill="#7E411F"/>
<path d="M1129.57 824.478L1125.46 821.815C1123.19 820.352 1122.56 817.331 1124.05 815.108L1153.49 771.209C1154.99 768.985 1158.06 768.363 1160.32 769.826L1164.44 772.489C1166.7 773.956 1167.34 776.973 1165.85 779.197L1136.4 823.098C1134.91 825.323 1131.84 825.945 1129.57 824.478" fill="#54D149"/>
<path d="M1195.67 813.938L1193.74 809.986C1192.68 807.814 1193.61 805.18 1195.83 804.132L1239.52 783.503C1241.74 782.459 1244.42 783.381 1245.48 785.552L1247.42 789.505C1248.48 791.681 1247.54 794.313 1245.33 795.358L1201.63 815.99C1199.42 817.035 1196.74 816.114 1195.67 813.938Z" fill="#7E411F"/>
<path d="M1329.8 768.167L1332.97 771.861C1334.7 773.891 1334.44 776.946 1332.37 778.655L1291.56 812.364C1289.49 814.073 1286.37 813.808 1284.64 811.779L1281.47 808.087C1279.73 806.057 1280 802.997 1282.07 801.293L1322.88 767.58C1324.95 765.871 1328.07 766.136 1329.8 768.167Z" fill="#EFDB25"/>
<path d="M1358.93 829.584L1355.69 827.024C1353.91 825.619 1353.63 823.04 1355.06 821.29L1383.33 786.775C1384.76 785.027 1387.39 784.747 1389.16 786.153L1392.4 788.709C1394.18 790.117 1394.47 792.699 1393.04 794.446L1364.77 828.962C1363.34 830.708 1360.71 830.989 1358.93 829.584" fill="#E93D3D"/>
<path d="M1451.06 770.119L1455.98 770.02C1458.69 769.965 1460.96 772.095 1461.01 774.758L1462.11 827.286C1462.17 829.945 1459.99 832.166 1457.28 832.221L1452.36 832.32C1449.65 832.375 1447.39 830.245 1447.33 827.582L1446.23 775.058C1446.17 772.395 1448.35 770.175 1451.06 770.119Z" fill="#E93D3D"/>
<path d="M1536.38 787.713L1537.53 784.922C1538.16 783.387 1539.96 782.643 1541.52 783.265L1572.36 795.568C1573.93 796.189 1574.69 797.954 1574.05 799.487L1572.9 802.279C1572.27 803.814 1570.47 804.558 1568.9 803.936L1538.06 791.633C1536.5 791.01 1535.74 789.244 1536.38 787.713" fill="#EFDB25"/>
</g>
</svg>
