<svg width="407" height="411" viewBox="0 0 407 411" fill="none" xmlns="http://www.w3.org/2000/svg">
<path d="M36.0464 3.97201L37.1401 5.24802C37.7417 5.94935 37.6599 7.01599 36.9579 7.61865L23.0984 19.4947C22.3969 20.096 21.3292 20.0147 20.7276 19.312L19.6338 18.036C19.0323 17.3333 19.1141 16.2667 19.8172 15.6653L33.6765 3.78932C34.3787 3.18799 35.4448 3.26934 36.0464 3.97201Z" fill="#6BCCA8"/>
<path d="M53.488 15.936L52.7041 14.54C52.2729 13.772 52.5479 12.792 53.3161 12.36L68.4735 3.84669C69.2407 3.41469 70.2224 3.69066 70.6531 4.45733L71.4369 5.85466C71.8693 6.62133 71.5932 7.60267 70.8251 8.03467L55.6688 16.548C54.9005 16.98 53.9203 16.704 53.488 15.936" fill="#7C8D93"/>
<path d="M83.3604 15.2801L83.1807 13.8734C83.0817 13.1 83.6339 12.3854 84.4073 12.2867L99.6755 10.3347C100.449 10.2374 101.164 10.788 101.263 11.5614L101.442 12.9694C101.541 13.7427 100.989 14.456 100.216 14.5547L84.9464 16.5067C84.1729 16.6054 83.4593 16.0534 83.3604 15.2801" fill="#6BCCA8"/>
<path d="M119.707 19.6253L119.103 18.7867C118.77 18.3267 118.876 17.6774 119.337 17.3454L128.432 10.7867C128.893 10.4547 129.543 10.56 129.875 11.02L130.479 11.8573C130.811 12.3187 130.706 12.968 130.244 13.3L121.149 19.8587C120.689 20.1907 120.039 20.0853 119.707 19.6253" fill="#363952"/>
<path d="M160.56 10.568L161.336 11.2947C161.763 11.6947 161.785 12.3707 161.385 12.7973L153.493 21.2253C153.093 21.652 152.417 21.6747 151.991 21.2747L151.215 20.548C150.788 20.148 150.765 19.472 151.165 19.0454L159.057 10.6173C159.457 10.1907 160.132 10.168 160.56 10.568Z" fill="#363952"/>
<path d="M182.584 25.1626L181.16 24.4626C180.377 24.0773 180.052 23.1213 180.437 22.3387L188.044 6.8853C188.429 6.10263 189.385 5.77731 190.168 6.16264L191.591 6.86398C192.373 7.24931 192.699 8.2053 192.313 8.98797L184.708 24.44C184.323 25.2227 183.367 25.548 182.584 25.1626Z" fill="#6BCCA8"/>
<path d="M217.66 8.41867L218.984 8.50135C219.712 8.54802 220.271 9.18136 220.225 9.90936L219.324 24.2827C219.277 25.0107 218.644 25.5693 217.916 25.524L216.592 25.44C215.864 25.3947 215.305 24.7613 215.351 24.0333L216.253 9.66001C216.299 8.93068 216.932 8.37333 217.66 8.41867" fill="#7C8D93"/>
<path d="M254.612 8.70935L255.76 9.56267C256.392 10.032 256.524 10.9333 256.056 11.5653L246.792 24.0347C246.323 24.6667 245.421 24.8 244.791 24.3307L243.641 23.4773C243.011 23.008 242.877 22.1067 243.347 21.476L252.611 9.00535C253.079 8.37335 253.98 8.24002 254.612 8.70935" fill="#F36553"/>
<path d="M281.296 10.3254L281.535 9.17605C281.667 8.54272 282.292 8.13337 282.924 8.26404L295.409 10.86C296.043 10.9907 296.453 11.6161 296.321 12.2481L296.083 13.3987C295.952 14.0307 295.325 14.4414 294.693 14.3094L282.207 11.7147C281.575 11.5827 281.165 10.9587 281.296 10.3254" fill="#6BCCA8"/>
<path d="M321.375 6.53734L322.476 7.67735C323.083 8.30401 323.065 9.31199 322.439 9.91732L310.065 21.876C309.437 22.4827 308.429 22.4653 307.823 21.8387L306.721 20.6987C306.116 20.072 306.132 19.064 306.76 18.4573L319.133 6.49867C319.761 5.89333 320.769 5.90934 321.375 6.53734" fill="#F8A7AB"/>
<path d="M354.581 18.436L353.224 18.7546C352.476 18.9293 351.721 18.46 351.547 17.7133L348.092 2.95997C347.917 2.21197 348.387 1.45866 349.133 1.28266L350.492 0.963976C351.239 0.790643 351.995 1.25865 352.169 2.00532L355.623 16.7586C355.797 17.5066 355.329 18.2613 354.581 18.436" fill="#7C8D93"/>
<path d="M386.864 6.50938L387.824 7.93203C388.352 8.7147 388.144 9.78672 387.361 10.3147L371.911 20.7414C371.128 21.2694 370.057 21.0614 369.528 20.2787L368.569 18.8547C368.04 18.0734 368.248 17 369.031 16.472L384.48 6.04538C385.263 5.51871 386.336 5.72671 386.864 6.50938" fill="#F8A7AB"/>
<path d="M12.4344 35.728L13.6807 35.4414C14.3656 35.2827 15.0542 35.7147 15.212 36.4L18.3276 49.9213C18.4854 50.6053 18.0542 51.2947 17.3693 51.4533L16.1234 51.74C15.4385 51.8987 14.7495 51.4667 14.5922 50.7814L11.476 37.2613C11.3187 36.576 11.7495 35.8867 12.4344 35.728" fill="#7C8D93"/>
<path d="M41.0541 49.636L40.2355 48.6733C39.7849 48.144 39.8484 47.3426 40.3771 46.8906L50.824 37.996C51.3527 37.5453 52.1547 37.6107 52.6052 38.14L53.424 39.1013C53.8745 39.6307 53.8109 40.4333 53.2823 40.8827L42.8355 49.7773C42.3068 50.228 41.5047 50.164 41.0541 49.636" fill="#6BCCA8"/>
<path d="M75.226 52.536L74.3473 51.9973C73.864 51.7013 73.7104 51.064 74.0073 50.58L79.8552 41.0333C80.1521 40.5493 80.7901 40.396 81.2729 40.6933L82.1521 41.232C82.6364 41.528 82.7891 42.1653 82.4932 42.6493L76.6443 52.196C76.3484 52.68 75.7104 52.832 75.226 52.536" fill="#7C8D93"/>
<path d="M112.712 42.308L113.497 43.0027C113.929 43.384 113.97 44.0507 113.588 44.4827L106.045 53.0133C105.663 53.4453 104.997 53.4853 104.565 53.104L103.778 52.4093C103.347 52.0267 103.306 51.3613 103.689 50.928L111.231 42.3987C111.613 41.9667 112.28 41.9253 112.712 42.308" fill="#7C8D93"/>
<path d="M146.227 51.128L145.213 51.6267C144.656 51.9027 143.976 51.6707 143.701 51.1147L138.28 40.12C138.005 39.5627 138.235 38.8814 138.793 38.6067L139.806 38.108C140.361 37.8334 141.043 38.064 141.317 38.6213L146.739 49.616C147.013 50.1734 146.784 50.8533 146.227 51.128Z" fill="#6BCCA8"/>
<path d="M167.731 40.7054L168.797 40.1747C169.384 39.8827 170.103 40.1254 170.395 40.712L176.145 52.2934C176.437 52.8787 176.196 53.5974 175.609 53.8894L174.543 54.4187C173.956 54.7107 173.237 54.4694 172.947 53.8814L167.193 42.3014C166.903 41.7147 167.144 40.996 167.731 40.7054Z" fill="#363952"/>
<path d="M203.189 37.0267L203.953 36.0481C204.372 35.5094 205.156 35.4107 205.693 35.8307L216.328 44.108C216.865 44.528 216.963 45.312 216.544 45.8507L215.783 46.8294C215.363 47.368 214.579 47.4654 214.04 47.0467L203.407 38.7694C202.868 38.3494 202.771 37.5654 203.189 37.0267" fill="#6BCCA8"/>
<path d="M230.087 55.0053L228.784 54.1027C228.067 53.6067 227.885 52.6133 228.381 51.896L238.18 37.7387C238.677 37.0213 239.669 36.8413 240.387 37.3373L241.691 38.24C242.407 38.7373 242.588 39.7293 242.092 40.4467L232.293 54.604C231.796 55.3213 230.804 55.5013 230.087 55.0053Z" fill="#363952"/>
<path d="M278.347 31.864L279.624 33.352C280.325 34.1693 280.231 35.4134 279.412 36.1147L263.267 49.9667C262.449 50.668 261.205 50.5733 260.504 49.7547L259.228 48.268C258.527 47.4493 258.623 46.2067 259.44 45.5053L275.584 31.6533C276.403 30.952 277.645 31.0467 278.347 31.864Z" fill="#F8A7AB"/>
<path d="M294.935 55.7693L293.612 55.004C292.884 54.584 292.632 53.644 293.053 52.916L301.357 38.5453C301.779 37.816 302.719 37.5653 303.447 37.9853L304.771 38.7507C305.499 39.172 305.749 40.1107 305.329 40.84L297.024 55.2107C296.603 55.9387 295.664 56.1907 294.935 55.7693" fill="#F8A7AB"/>
<path d="M342.297 36.8027L343.079 38.6013C343.509 39.592 343.051 40.752 342.061 41.1827L322.524 49.66C321.533 50.0893 320.373 49.6307 319.944 48.6413L319.163 46.8427C318.733 45.852 319.191 44.6907 320.18 44.2613L339.717 35.7827C340.707 35.3547 341.868 35.812 342.297 36.8027Z" fill="#6BCCA8"/>
<path d="M365.293 53.4054L363.724 53.1107C362.859 52.948 362.285 52.108 362.448 51.244L365.656 34.1853C365.819 33.3213 366.659 32.748 367.523 32.9094L369.095 33.2054C369.959 33.368 370.532 34.208 370.369 35.072L367.161 52.1307C366.999 52.9947 366.159 53.5694 365.293 53.4054" fill="#7C8D93"/>
<path d="M30.2104 84.6453L28.9047 84.428C28.1869 84.3093 27.6973 83.6253 27.8161 82.9067L30.1703 68.7307C30.2885 68.0133 30.9735 67.5227 31.6921 67.6413L32.9984 67.8587C33.7156 67.9773 34.2052 68.6627 34.0869 69.3813L31.7328 83.5573C31.614 84.2747 30.9292 84.764 30.2104 84.6453" fill="#7C8D93"/>
<path d="M51.0869 76.7787L50.4333 74.9653C50.074 73.968 50.5959 72.8573 51.5932 72.4973L71.2849 65.4027C72.2823 65.0427 73.3927 65.5653 73.7521 66.5627L74.4057 68.376C74.7651 69.3734 74.2432 70.484 73.2459 70.8427L53.5541 77.9387C52.5568 78.2973 51.4464 77.776 51.0869 76.7787" fill="#363952"/>
<path d="M83.0046 85.8213L82.0869 84.668C81.5817 84.0333 81.6869 83.1013 82.3213 82.596L94.8406 72.624C95.475 72.1187 96.4073 72.224 96.9125 72.8573L97.8302 74.0107C98.3354 74.6453 98.2302 75.5773 97.5958 76.0827L85.0765 86.0546C84.4421 86.56 83.5098 86.4546 83.0046 85.8213Z" fill="#6BCCA8"/>
<path d="M116.075 82.072L115.459 80.7947C115.119 80.092 115.418 79.2387 116.121 78.9L129.993 72.2067C130.696 71.868 131.548 72.1654 131.887 72.868L132.504 74.1454C132.843 74.8494 132.545 75.7014 131.843 76.04L117.97 82.7334C117.267 83.072 116.415 82.7747 116.075 82.072Z" fill="#F8A7AB"/>
<path d="M147.485 74.764L147.831 73.22C148.021 72.3706 148.872 71.8306 149.721 72.0213L166.495 75.7747C167.345 75.964 167.884 76.8147 167.693 77.6653L167.348 79.2093C167.159 80.06 166.307 80.5987 165.459 80.4093L148.684 76.6546C147.835 76.4653 147.295 75.6147 147.485 74.764" fill="#7C8D93"/>
<path d="M186.452 75.636L186.171 74.4747C186.015 73.836 186.412 73.1867 187.051 73.032L199.661 69.98C200.3 69.8254 200.949 70.2214 201.104 70.86L201.385 72.0213C201.539 72.66 201.143 73.3094 200.505 73.464L187.895 76.516C187.255 76.6707 186.607 76.2747 186.452 75.636Z" fill="#6BCCA8"/>
<path d="M214.109 64.9774L215.976 64.58C217.003 64.36 218.021 65.0214 218.24 66.048L222.565 86.3173C222.784 87.3453 222.124 88.364 221.096 88.5827L219.231 88.9814C218.203 89.2 217.183 88.54 216.964 87.5134L212.64 67.2427C212.421 66.216 213.081 65.1974 214.109 64.9774" fill="#7C8D93"/>
<path d="M243.583 87.2107L241.963 86.0107C241.072 85.3507 240.884 84.0813 241.544 83.1907L254.575 65.6093C255.236 64.7187 256.504 64.5307 257.395 65.1907L259.013 66.3907C259.904 67.0507 260.093 68.32 259.433 69.2107L246.403 86.792C245.741 87.6827 244.473 87.8707 243.583 87.2107Z" fill="#6BCCA8"/>
<path d="M277.015 64.8627L278.087 63.1933C278.676 62.2733 279.909 62.004 280.828 62.5933L298.959 74.228C299.879 74.816 300.147 76.0507 299.559 76.9693L298.487 78.6387C297.897 79.5573 296.664 79.8267 295.744 79.2373L277.613 67.604C276.695 67.0147 276.425 65.7813 277.015 64.8627" fill="#F8A7AB"/>
<path d="M318.524 85.8027L316.711 85.8547C315.713 85.884 314.873 85.0907 314.845 84.0933L314.276 64.4053C314.247 63.408 315.04 62.5693 316.037 62.54L317.849 62.488C318.847 62.4587 319.687 63.2507 319.716 64.248L320.285 83.936C320.313 84.9333 319.521 85.7733 318.524 85.8027" fill="#7C8D93"/>
<path d="M355.107 82.42L353.868 82.9134C353.187 83.184 352.407 82.8494 352.136 82.1667L346.785 68.7173C346.513 68.036 346.848 67.2573 347.531 66.9853L348.769 66.4933C349.451 66.2213 350.231 66.5574 350.501 67.2387L355.852 80.688C356.124 81.3693 355.789 82.1493 355.107 82.42Z" fill="#6BCCA8"/>
<path d="M375.017 60.42L376.697 59.3147C377.623 58.7067 378.876 58.964 379.484 59.8893L391.487 78.1333C392.095 79.0573 391.836 80.3106 390.911 80.9186L389.232 82.024C388.307 82.632 387.053 82.3733 386.445 81.4493L374.443 63.2053C373.835 62.2813 374.093 61.028 375.017 60.42" fill="#7C8D93"/>
<path d="M18.0844 98.732L19.4917 100.012C20.2651 100.716 20.3224 101.927 19.6182 102.7L5.71458 117.98C5.00989 118.755 3.80051 118.812 3.02707 118.107L1.61926 116.827C0.845822 116.123 0.788542 114.913 1.49322 114.139L15.3953 98.8586C16.1 98.084 17.3094 98.0267 18.0844 98.732Z" fill="#363952"/>
<path d="M44.1729 100.809L45.8432 101.357C46.7625 101.66 47.2667 102.657 46.9656 103.576L41.0115 121.712C40.7093 122.631 39.7104 123.136 38.7927 122.835L37.1219 122.287C36.2027 121.985 35.6973 120.985 35.9995 120.068L41.9541 101.931C42.2563 101.012 43.2547 100.508 44.1729 100.809Z" fill="#363952"/>
<path d="M68.3068 125.492L66.376 124.937C65.3145 124.632 64.6964 123.515 65.0011 122.453L71.0229 101.499C71.3276 100.437 72.4464 99.8187 73.5073 100.124L75.4369 100.679C76.4984 100.983 77.1183 102.101 76.812 103.163L70.7912 124.116C70.4855 125.179 69.3683 125.797 68.3068 125.492" fill="#6BCCA8"/>
<path d="M113.278 116.617L112.148 117.257C111.527 117.608 110.73 117.388 110.379 116.767L103.437 104.495C103.085 103.873 103.306 103.077 103.928 102.725L105.058 102.087C105.679 101.735 106.476 101.955 106.828 102.577L113.769 114.848C114.121 115.469 113.901 116.267 113.278 116.617Z" fill="#F8A7AB"/>
<path d="M153.24 99.252L153.876 101.053C154.225 102.044 153.7 103.14 152.709 103.491L133.149 110.384C132.158 110.733 131.062 110.209 130.713 109.217L130.078 107.416C129.729 106.425 130.254 105.329 131.244 104.98L150.804 98.0854C151.795 97.736 152.892 98.2614 153.24 99.252Z" fill="#F36553"/>
<path d="M175.971 100.369L177.152 100.5C177.8 100.572 178.272 101.163 178.2 101.811L176.78 114.621C176.708 115.269 176.119 115.743 175.469 115.669L174.291 115.539C173.64 115.467 173.169 114.877 173.24 114.228L174.661 101.419C174.733 100.769 175.323 100.297 175.971 100.369" fill="#F8A7AB"/>
<path d="M200.488 109.035L200.287 107.857C200.176 107.209 200.615 106.589 201.263 106.479L214.047 104.293C214.695 104.183 215.315 104.621 215.425 105.269L215.627 106.447C215.737 107.095 215.299 107.715 214.651 107.825L201.867 110.012C201.219 110.121 200.599 109.683 200.488 109.035" fill="#F8A7AB"/>
<path d="M221.965 114.1L221.155 112.248C220.709 111.228 221.179 110.029 222.197 109.583L242.319 100.775C243.339 100.328 244.537 100.797 244.983 101.816L245.795 103.669C246.24 104.688 245.772 105.888 244.752 106.335L224.631 115.143C223.612 115.589 222.412 115.12 221.965 114.1Z" fill="#363952"/>
<path d="M264.792 101.54L265.38 100.141C265.703 99.3707 266.597 99.0053 267.367 99.3293L282.561 105.709C283.331 106.032 283.695 106.927 283.372 107.696L282.785 109.095C282.46 109.865 281.568 110.231 280.797 109.907L265.604 103.527C264.835 103.204 264.469 102.309 264.792 101.54" fill="#6BCCA8"/>
<path d="M300.521 99.9307L301.844 99.804C302.571 99.7333 303.224 100.272 303.292 100.999L304.675 115.353C304.744 116.081 304.207 116.733 303.479 116.803L302.157 116.931C301.429 117 300.779 116.461 300.708 115.735L299.327 101.38C299.256 100.652 299.793 100 300.521 99.9307" fill="#363952"/>
<path d="M332.297 118.641L330.68 118.393C329.792 118.257 329.176 117.417 329.312 116.528L332.011 98.976C332.147 98.0867 332.985 97.472 333.875 97.608L335.492 97.8573C336.38 97.9933 336.996 98.832 336.859 99.7213L334.163 117.273C334.025 118.163 333.187 118.779 332.297 118.641" fill="#363952"/>
<path d="M362.256 98.7267L363.12 97.5387C363.596 96.884 364.519 96.7387 365.173 97.2134L378.083 106.596C378.736 107.072 378.883 107.995 378.407 108.649L377.544 109.839C377.069 110.492 376.144 110.639 375.491 110.163L362.58 100.78C361.927 100.305 361.781 99.3813 362.256 98.7267" fill="#7C8D93"/>
<path d="M26.6052 127.387L28.6036 127.573C29.7027 127.677 30.5177 128.661 30.4151 129.761L28.3787 151.463C28.2755 152.563 27.2912 153.379 26.1921 153.275L24.1937 153.087C23.0948 152.984 22.2797 152 22.3823 150.901L24.4188 129.199C24.5219 128.099 25.5047 127.283 26.6052 127.387" fill="#6BCCA8"/>
<path d="M49.114 134.096L50.0541 132.397C50.5713 131.464 51.7588 131.121 52.6921 131.639L71.1349 141.843C72.0697 142.359 72.4109 143.547 71.8943 144.48L70.9541 146.18C70.4369 147.113 69.2495 147.455 68.3161 146.937L49.8735 136.735C48.9385 136.217 48.5973 135.031 49.114 134.096Z" fill="#6BCCA8"/>
<path d="M89.726 147.427L88.9527 146.691C88.5271 146.285 88.5099 145.607 88.9151 145.181L96.9047 136.781C97.3084 136.356 97.988 136.339 98.4136 136.743L99.1869 137.479C99.6131 137.884 99.6297 138.563 99.2251 138.989L91.2355 147.388C90.8303 147.815 90.1521 147.831 89.726 147.427" fill="#7C8D93"/>
<path d="M124.358 141.613L123.945 140.725C123.718 140.237 123.932 139.653 124.42 139.425L134.054 134.949C134.543 134.723 135.127 134.936 135.354 135.425L135.767 136.312C135.993 136.8 135.78 137.385 135.291 137.612L125.657 142.088C125.169 142.315 124.584 142.101 124.358 141.613Z" fill="#7C8D93"/>
<path d="M155.797 146.531L154.757 145.816C154.184 145.423 154.039 144.633 154.431 144.061L162.184 132.768C162.577 132.196 163.367 132.048 163.94 132.441L164.98 133.156C165.552 133.548 165.699 134.339 165.305 134.909L157.552 146.204C157.159 146.776 156.369 146.923 155.797 146.531Z" fill="#363952"/>
<path d="M176.508 151.92L175.192 150.607C174.469 149.884 174.469 148.703 175.192 147.98L189.445 133.713C190.168 132.991 191.349 132.991 192.072 133.712L193.387 135.025C194.109 135.748 194.109 136.929 193.388 137.652L179.133 151.919C178.411 152.641 177.231 152.641 176.508 151.92Z" fill="#363952"/>
<path d="M218.592 148.725L217.261 148.013C216.529 147.621 216.251 146.703 216.643 145.971L224.373 131.521C224.765 130.789 225.684 130.511 226.416 130.903L227.747 131.615C228.479 132.007 228.757 132.925 228.365 133.657L220.635 148.107C220.243 148.839 219.324 149.117 218.592 148.725" fill="#363952"/>
<path d="M247.623 136.869L248.28 135.783C248.641 135.185 249.427 134.993 250.024 135.355L261.815 142.5C262.412 142.863 262.605 143.648 262.243 144.244L261.584 145.331C261.223 145.928 260.439 146.12 259.841 145.759L248.051 138.613C247.453 138.251 247.26 137.465 247.623 136.869Z" fill="#7C8D93"/>
<path d="M273.493 130.379L274.871 128.9C275.627 128.085 276.913 128.04 277.728 128.797L293.795 143.752C294.609 144.509 294.655 145.795 293.899 146.608L292.52 148.089C291.763 148.903 290.476 148.949 289.663 148.191L273.595 133.237C272.781 132.479 272.736 131.193 273.493 130.379" fill="#6BCCA8"/>
<path d="M307.251 128.244L308.752 126.892C309.577 126.149 310.861 126.216 311.605 127.041L326.285 143.337C327.028 144.163 326.96 145.447 326.135 146.191L324.633 147.543C323.808 148.287 322.524 148.219 321.781 147.393L307.103 131.097C306.359 130.272 306.425 128.988 307.251 128.244Z" fill="#F36553"/>
<path d="M342.136 128.539L343.125 126.848C343.671 125.917 344.877 125.603 345.807 126.148L364.164 136.897C365.093 137.441 365.408 138.648 364.864 139.577L363.873 141.268C363.329 142.199 362.124 142.513 361.193 141.969L342.837 131.22C341.907 130.675 341.591 129.469 342.136 128.539" fill="#363952"/>
<path d="M386.256 147.365L384.705 147.813C383.852 148.059 382.953 147.563 382.707 146.711L377.844 129.872C377.597 129.019 378.093 128.12 378.947 127.873L380.497 127.425C381.349 127.18 382.249 127.676 382.496 128.528L387.359 145.365C387.605 146.219 387.109 147.119 386.256 147.365Z" fill="#363952"/>
<path d="M3.17812 173.132L3.11563 171.581C3.08022 170.728 3.75104 170.003 4.60364 169.968L21.4422 169.287C22.2953 169.251 23.0203 169.921 23.0557 170.773L23.1183 172.324C23.1531 173.179 22.4828 173.904 21.6297 173.939L4.79115 174.62C3.93855 174.655 3.21303 173.985 3.17812 173.132" fill="#6BCCA8"/>
<path d="M40.6104 162.672L41.6807 161.576C42.2703 160.975 43.2459 160.964 43.8473 161.553L55.7364 173.184C56.338 173.772 56.35 174.747 55.7599 175.349L54.6885 176.444C54.1 177.047 53.1245 177.057 52.5229 176.468L40.6339 164.837C40.0307 164.248 40.0203 163.273 40.6104 162.672" fill="#6BCCA8"/>
<path d="M70.6193 169.441L71.5645 168.692C72.0828 168.281 72.8459 168.369 73.2573 168.888L81.3864 179.141C81.7979 179.66 81.7104 180.423 81.1912 180.833L80.2469 181.583C79.7276 181.995 78.9656 181.907 78.5531 181.387L70.424 171.135C70.0125 170.615 70.1 169.853 70.6193 169.441Z" fill="#F8A7AB"/>
<path d="M104.833 163.999L106.043 163.269C106.709 162.869 107.582 163.087 107.983 163.752L115.892 176.895C116.293 177.56 116.077 178.433 115.41 178.833L114.2 179.561C113.533 179.963 112.661 179.745 112.261 179.08L104.351 165.937C103.95 165.272 104.168 164.4 104.833 163.999" fill="#7C8D93"/>
<path d="M134.82 157.491L136.58 156.601C137.548 156.111 138.741 156.503 139.23 157.471L148.892 176.581C149.381 177.549 148.989 178.741 148.021 179.232L146.261 180.121C145.292 180.611 144.101 180.219 143.612 179.251L133.951 160.14C133.46 159.172 133.853 157.98 134.82 157.491" fill="#6BCCA8"/>
<path d="M170.617 166L171.076 164.704C171.331 163.991 172.121 163.615 172.833 163.868L186.907 168.865C187.621 169.119 187.997 169.908 187.743 170.623L187.284 171.919C187.031 172.631 186.239 173.008 185.527 172.755L171.453 167.757C170.739 167.504 170.363 166.713 170.617 166Z" fill="#6BCCA8"/>
<path d="M212.415 165.137L213.356 166.808C213.875 167.727 213.547 168.903 212.628 169.42L194.492 179.644C193.572 180.161 192.397 179.833 191.88 178.915L190.937 177.244C190.42 176.325 190.748 175.151 191.667 174.632L209.803 164.409C210.723 163.891 211.897 164.219 212.415 165.137Z" fill="#7C8D93"/>
<path d="M228.855 175.537L228.797 174.323C228.765 173.656 229.285 173.083 229.953 173.051L243.129 172.417C243.797 172.385 244.369 172.907 244.401 173.573L244.46 174.787C244.492 175.455 243.972 176.027 243.305 176.059L230.127 176.692C229.46 176.724 228.888 176.204 228.855 175.537Z" fill="#F8A7AB"/>
<path d="M261.416 165.323L262.021 163.607C262.353 162.664 263.399 162.164 264.343 162.497L282.963 169.069C283.907 169.401 284.405 170.445 284.073 171.389L283.468 173.104C283.135 174.047 282.091 174.547 281.148 174.213L262.525 167.643C261.583 167.309 261.083 166.267 261.416 165.323" fill="#363952"/>
<path d="M300.916 181.629L299.815 181.376C299.209 181.236 298.828 180.627 298.967 180.02L301.723 168.061C301.863 167.456 302.472 167.073 303.077 167.213L304.18 167.467C304.785 167.607 305.167 168.217 305.027 168.823L302.272 180.781C302.132 181.387 301.521 181.768 300.916 181.629" fill="#6BCCA8"/>
<path d="M334.701 181.415L333.237 181.473C332.433 181.507 331.748 180.876 331.716 180.071L331.068 164.185C331.035 163.381 331.667 162.696 332.471 162.663L333.933 162.603C334.737 162.571 335.424 163.203 335.457 164.007L336.104 179.892C336.137 180.696 335.507 181.381 334.701 181.415" fill="#6BCCA8"/>
<path d="M352.593 179.719L351.716 178.199C351.235 177.361 351.523 176.283 352.36 175.8L368.875 166.276C369.711 165.793 370.791 166.083 371.273 166.92L372.149 168.441C372.632 169.277 372.343 170.356 371.507 170.839L354.992 180.363C354.155 180.845 353.076 180.556 352.593 179.719Z" fill="#363952"/>
<path d="M393.268 181.225L392.123 180.495C391.492 180.093 391.305 179.248 391.708 178.619L399.643 166.185C400.045 165.556 400.889 165.369 401.519 165.771L402.664 166.501C403.293 166.904 403.48 167.748 403.079 168.379L395.143 180.811C394.741 181.441 393.897 181.628 393.268 181.225" fill="#7C8D93"/>
<path d="M31.2079 197.763L32.6011 199.052C33.3667 199.763 33.4136 200.969 32.7041 201.736L18.6937 216.856C17.9839 217.621 16.7771 217.668 16.0115 216.959L14.6182 215.668C13.8526 214.959 13.8057 213.751 14.5151 212.985L28.5255 197.864C29.2355 197.099 30.4421 197.052 31.2079 197.763Z" fill="#F36553"/>
<path d="M52.7183 217.252L51.4917 216.451C50.8172 216.011 50.626 215.097 51.0661 214.423L59.7693 201.103C60.2104 200.428 61.1235 200.237 61.7979 200.677L63.0245 201.479C63.6989 201.92 63.8901 202.833 63.45 203.508L54.7469 216.827C54.3057 217.501 53.3927 217.693 52.7183 217.252Z" fill="#6BCCA8"/>
<path d="M92.3161 216.328L90.3724 216.439C89.3016 216.5 88.3771 215.675 88.3172 214.604L87.1208 193.492C87.0593 192.423 87.8849 191.497 88.9557 191.436L90.8995 191.327C91.9697 191.267 92.8943 192.092 92.9541 193.161L94.1505 214.273C94.212 215.344 93.3864 216.268 92.3161 216.328Z" fill="#6BCCA8"/>
<path d="M119.548 208.865L118.522 207.643C117.958 206.969 118.046 205.959 118.72 205.393L131.996 194.257C132.668 193.693 133.679 193.781 134.244 194.455L135.27 195.677C135.834 196.351 135.746 197.361 135.072 197.925L121.796 209.063C121.123 209.627 120.112 209.539 119.548 208.865" fill="#7C8D93"/>
<path d="M151.433 198.121L151.853 196.552C152.084 195.691 152.98 195.173 153.843 195.405L170.869 199.969C171.733 200.2 172.248 201.096 172.017 201.959L171.597 203.527C171.365 204.389 170.471 204.905 169.609 204.675L152.58 200.109C151.719 199.879 151.201 198.984 151.433 198.121Z" fill="#363952"/>
<path d="M181.56 190.143L183.165 188.961C184.049 188.311 185.303 188.501 185.955 189.385L198.784 206.827C199.433 207.711 199.241 208.965 198.357 209.616L196.752 210.797C195.868 211.447 194.615 211.256 193.963 210.372L181.133 192.931C180.484 192.047 180.676 190.792 181.56 190.143Z" fill="#6BCCA8"/>
<path d="M214.988 199.755L216.009 198.968C216.571 198.535 217.383 198.64 217.816 199.201L226.363 210.28C226.796 210.841 226.691 211.655 226.129 212.088L225.109 212.875C224.548 213.308 223.736 213.203 223.301 212.641L214.755 201.563C214.321 201.001 214.427 200.188 214.988 199.755Z" fill="#363952"/>
<path d="M254.199 197.045L255.117 196.616C255.621 196.38 256.228 196.6 256.463 197.104L261.121 207.068C261.357 207.573 261.137 208.179 260.632 208.415L259.715 208.844C259.211 209.079 258.604 208.86 258.368 208.355L253.711 198.392C253.473 197.887 253.693 197.281 254.199 197.045Z" fill="#6BCCA8"/>
<path d="M270.024 208.196L269.445 206.273C269.125 205.216 269.731 204.091 270.789 203.771L291.665 197.477C292.723 197.159 293.848 197.764 294.168 198.821L294.747 200.744C295.067 201.801 294.461 202.928 293.404 203.247L272.527 209.54C271.469 209.859 270.344 209.255 270.024 208.196" fill="#F8A7AB"/>
<path d="M315.959 198.999L316.689 198.271C317.091 197.871 317.748 197.871 318.148 198.272L326.057 206.201C326.459 206.603 326.457 207.259 326.056 207.659L325.325 208.388C324.924 208.789 324.267 208.788 323.867 208.385L315.959 200.459C315.557 200.056 315.559 199.4 315.959 198.999Z" fill="#363952"/>
<path d="M346.852 195.261L348.249 194.968C349.017 194.807 349.78 195.303 349.941 196.072L353.128 211.241C353.291 212.011 352.793 212.771 352.025 212.933L350.628 213.227C349.859 213.388 349.099 212.891 348.937 212.123L345.748 196.953C345.587 196.184 346.084 195.424 346.852 195.261" fill="#7C8D93"/>
<path d="M383.292 198.616L384.561 199.251C385.259 199.6 385.545 200.457 385.196 201.156L378.3 214.943C377.952 215.641 377.093 215.927 376.396 215.577L375.125 214.941C374.427 214.593 374.141 213.736 374.491 213.037L381.387 199.251C381.736 198.552 382.592 198.267 383.292 198.616" fill="#6BCCA8"/>
<path d="M9.87603 232.428L10.1703 231.193C10.3328 230.516 11.0203 230.093 11.6989 230.256L25.0921 233.457C25.7703 233.619 26.1921 234.307 26.0307 234.985L25.7355 236.219C25.574 236.897 24.8849 237.32 24.2068 237.157L10.8146 233.956C10.1364 233.795 9.71301 233.105 9.87603 232.428" fill="#F8A7AB"/>
<path d="M43.1104 249.961L41.4464 250.233C40.5307 250.383 39.6584 249.756 39.5088 248.84L36.5531 230.765C36.4031 229.851 37.0297 228.979 37.9448 228.828L39.6104 228.556C40.5255 228.407 41.3969 229.033 41.5464 229.949L44.5036 248.023C44.6531 248.939 44.0271 249.811 43.1104 249.961" fill="#6BCCA8"/>
<path d="M78.988 227.993L80.0921 227.823C80.6989 227.729 81.2719 228.148 81.3656 228.756L83.2197 240.733C83.3136 241.34 82.8927 241.913 82.286 242.008L81.1833 242.179C80.5765 242.272 80.0036 241.852 79.9099 241.245L78.0557 229.268C77.962 228.66 78.3812 228.088 78.988 227.993Z" fill="#7C8D93"/>
<path d="M106.932 238.143L106.525 237.184C106.303 236.656 106.552 236.041 107.08 235.817L117.5 231.411C118.027 231.188 118.642 231.436 118.866 231.964L119.272 232.924C119.494 233.452 119.246 234.067 118.717 234.291L108.298 238.697C107.769 238.92 107.155 238.671 106.932 238.143Z" fill="#F8A7AB"/>
<path d="M141.585 244.728L140.515 244.428C139.927 244.263 139.58 243.647 139.744 243.057L143 231.435C143.165 230.845 143.781 230.499 144.371 230.664L145.441 230.963C146.029 231.129 146.376 231.745 146.212 232.333L142.956 243.957C142.792 244.547 142.175 244.892 141.585 244.728Z" fill="#6BCCA8"/>
<path d="M158.171 244.779L157.131 243.089C156.56 242.159 156.852 240.931 157.783 240.359L176.136 229.073C177.067 228.501 178.293 228.795 178.865 229.724L179.905 231.415C180.477 232.344 180.184 233.572 179.255 234.144L160.9 245.431C159.971 246.001 158.741 245.709 158.171 244.779Z" fill="#7C8D93"/>
<path d="M214.544 228.135L215.372 229.631C215.828 230.453 215.527 231.497 214.704 231.953L198.472 240.939C197.651 241.395 196.605 241.095 196.149 240.272L195.323 238.777C194.867 237.955 195.168 236.909 195.989 236.455L212.221 227.468C213.044 227.013 214.089 227.313 214.544 228.135Z" fill="#7C8D93"/>
<path d="M236.32 234.789L237.416 235.147C238.019 235.343 238.352 235.997 238.156 236.6L234.28 248.504C234.083 249.107 233.429 249.44 232.827 249.243L231.731 248.887C231.125 248.689 230.793 248.036 230.991 247.433L234.867 235.529C235.064 234.927 235.717 234.593 236.32 234.789Z" fill="#6BCCA8"/>
<path d="M268.477 230.06L269.185 229.257C269.575 228.815 270.255 228.772 270.697 229.161L279.419 236.853C279.86 237.243 279.903 237.924 279.515 238.365L278.805 239.168C278.416 239.611 277.736 239.653 277.293 239.264L268.571 231.572C268.129 231.183 268.087 230.501 268.477 230.06Z" fill="#6BCCA8"/>
<path d="M310.561 226.221L311.579 227.517C312.139 228.229 312.013 229.269 311.303 229.829L297.243 240.887C296.531 241.447 295.491 241.323 294.931 240.611L293.911 239.316C293.351 238.603 293.476 237.563 294.188 237.003L308.247 225.945C308.959 225.385 310.001 225.509 310.561 226.221Z" fill="#363952"/>
<path d="M328.409 227.929L330.147 227.971C331.101 227.995 331.863 228.796 331.84 229.751L331.375 248.6C331.351 249.555 330.551 250.317 329.596 250.293L327.859 250.251C326.904 250.227 326.143 249.427 326.167 248.471L326.631 229.621C326.655 228.667 327.456 227.905 328.409 227.929" fill="#7C8D93"/>
<path d="M369.22 234.008L369.993 235.221C370.417 235.888 370.22 236.783 369.552 237.208L356.381 245.599C355.715 246.024 354.82 245.825 354.396 245.159L353.623 243.945C353.197 243.279 353.396 242.384 354.063 241.96L367.235 233.568C367.901 233.143 368.793 233.341 369.22 234.008Z" fill="#7C8D93"/>
<path d="M392.805 238.568L392.5 237.503C392.332 236.917 392.673 236.3 393.259 236.132L404.817 232.808C405.403 232.64 406.019 232.981 406.187 233.568L406.495 234.632C406.663 235.217 406.321 235.835 405.736 236.003L394.177 239.325C393.591 239.495 392.973 239.153 392.805 238.568Z" fill="#7C8D93"/>
<path d="M24.3839 277.298L23.3901 276.543C22.8432 276.125 22.738 275.337 23.1531 274.792L31.3719 264.005C31.7885 263.46 32.5751 263.352 33.1219 263.769L34.1156 264.525C34.6625 264.943 34.7677 265.731 34.3527 266.276L26.1339 277.063C25.7172 277.608 24.9292 277.715 24.3839 277.298" fill="#7C8D93"/>
<path d="M64.2079 257.333L65.8771 257.96C66.7953 258.304 67.2651 259.336 66.9213 260.255L60.1312 278.384C59.7875 279.303 58.7547 279.772 57.8355 279.428L56.1661 278.803C55.2469 278.459 54.7781 277.427 55.1219 276.508L61.9125 258.379C62.2563 257.46 63.2885 256.991 64.2079 257.333" fill="#363952"/>
<path d="M88.1079 265.709L88.238 264.363C88.3093 263.622 88.9735 263.075 89.7145 263.147L104.333 264.557C105.072 264.629 105.621 265.295 105.549 266.035L105.419 267.38C105.347 268.121 104.683 268.669 103.942 268.597L89.324 267.185C88.5833 267.115 88.036 266.451 88.1079 265.709" fill="#7C8D93"/>
<path d="M116.031 262.96L116.552 261.225C116.838 260.272 117.853 259.725 118.807 260.012L137.632 265.665C138.585 265.952 139.131 266.967 138.845 267.92L138.324 269.655C138.037 270.608 137.023 271.155 136.07 270.868L117.244 265.214C116.291 264.928 115.744 263.914 116.031 262.96" fill="#F36553"/>
<path d="M156.24 278.027L154.792 277.655C153.995 277.449 153.511 276.629 153.715 275.832L157.76 260.098C157.964 259.302 158.785 258.817 159.581 259.021L161.031 259.395C161.828 259.6 162.312 260.419 162.107 261.216L158.063 276.951C157.856 277.747 157.037 278.232 156.24 278.027" fill="#7C8D93"/>
<path d="M198.357 262.867L198.923 264.293C199.235 265.077 198.847 265.975 198.063 266.285L182.576 272.425C181.792 272.736 180.896 272.349 180.584 271.564L180.019 270.139C179.708 269.353 180.096 268.457 180.88 268.147L196.365 262.007C197.149 261.696 198.047 262.083 198.357 262.867" fill="#363952"/>
<path d="M217.532 279.916L215.709 279.304C214.707 278.968 214.163 277.872 214.5 276.869L221.145 257.08C221.481 256.077 222.577 255.533 223.58 255.869L225.403 256.481C226.404 256.819 226.951 257.914 226.613 258.916L219.967 278.707C219.631 279.709 218.535 280.253 217.532 279.916" fill="#363952"/>
<path d="M248.304 281.161L247.123 280.688C246.471 280.428 246.152 279.683 246.412 279.031L251.557 266.188C251.817 265.537 252.564 265.219 253.213 265.479L254.397 265.953C255.048 266.214 255.367 266.96 255.105 267.609L249.961 280.453C249.701 281.103 248.956 281.422 248.304 281.161" fill="#6BCCA8"/>
<path d="M279.524 275.831L278.247 274.783C277.544 274.207 277.44 273.16 278.016 272.457L289.388 258.581C289.963 257.879 291.011 257.775 291.713 258.351L292.991 259.398C293.693 259.975 293.797 261.02 293.223 261.724L281.849 275.6C281.275 276.303 280.228 276.407 279.524 275.831Z" fill="#F36553"/>
<path d="M320.953 267.012L321.651 267.96C322.035 268.481 321.921 269.221 321.401 269.605L311.109 277.183C310.587 277.567 309.847 277.455 309.463 276.933L308.765 275.985C308.381 275.463 308.493 274.723 309.015 274.339L319.307 266.761C319.828 266.377 320.569 266.491 320.953 267.012" fill="#F36553"/>
<path d="M356.107 265.841L356.6 267.077C356.872 267.757 356.537 268.536 355.856 268.807L342.433 274.163C341.752 274.435 340.975 274.1 340.703 273.419L340.209 272.183C339.939 271.503 340.273 270.724 340.953 270.453L354.377 265.097C355.057 264.827 355.836 265.16 356.107 265.841" fill="#F8A7AB"/>
<path d="M384.363 266.044L385.213 266.921C385.68 267.404 385.669 268.181 385.187 268.649L375.664 277.885C375.181 278.353 374.403 278.343 373.936 277.86L373.085 276.983C372.617 276.5 372.628 275.723 373.112 275.255L382.635 266.019C383.117 265.549 383.895 265.561 384.363 266.044Z" fill="#363952"/>
<path d="M0.946355 303.152L0.679155 301.503C0.532289 300.596 1.15469 299.733 2.06197 299.586L19.9724 296.686C20.8786 296.541 21.7417 297.163 21.8891 298.071L22.1557 299.72C22.3016 300.628 21.6807 301.489 20.7729 301.636L2.86302 304.535C1.95521 304.683 1.09218 304.06 0.946355 303.152Z" fill="#F8A7AB"/>
<path d="M43.6245 303.633L42.9984 302.783C42.6531 302.314 42.7547 301.649 43.2235 301.304L52.4672 294.5C52.9344 294.156 53.6 294.256 53.9448 294.725L54.5713 295.576C54.9161 296.045 54.8145 296.709 54.3473 297.055L45.1027 303.859C44.6349 304.203 43.9697 304.102 43.6245 303.633" fill="#F8A7AB"/>
<path d="M76.4672 310.802L75.4907 310.735C74.9541 310.697 74.5437 310.228 74.5803 309.691L75.3068 299.084C75.3432 298.547 75.8136 298.136 76.3511 298.173L77.3276 298.24C77.8656 298.277 78.2745 298.747 78.238 299.284L77.5115 309.891C77.4751 310.428 77.0047 310.837 76.4672 310.802Z" fill="#F36553"/>
<path d="M106.514 298.945L106.583 297.873C106.621 297.283 107.135 296.831 107.725 296.869L119.376 297.619C119.966 297.657 120.418 298.171 120.38 298.761L120.311 299.835C120.273 300.424 119.759 300.876 119.169 300.839L107.518 300.088C106.928 300.049 106.476 299.536 106.514 298.945" fill="#363952"/>
<path d="M143.748 310.237L141.929 310.731C140.929 311.002 139.889 310.405 139.617 309.405L134.256 289.657C133.984 288.657 134.58 287.617 135.582 287.345L137.401 286.852C138.401 286.58 139.441 287.176 139.713 288.176L145.073 307.924C145.345 308.924 144.748 309.965 143.748 310.237Z" fill="#F36553"/>
<path d="M161.557 306.429L160.676 304.879C160.189 304.027 160.491 302.932 161.344 302.447L178.173 292.873C179.025 292.388 180.12 292.688 180.605 293.541L181.487 295.091C181.971 295.944 181.671 297.039 180.819 297.522L163.989 307.097C163.136 307.583 162.043 307.281 161.557 306.429Z" fill="#6BCCA8"/>
<path d="M213.072 290.017L214.252 291.085C214.901 291.673 214.952 292.685 214.364 293.333L202.764 306.14C202.177 306.789 201.165 306.839 200.516 306.251L199.337 305.183C198.688 304.595 198.639 303.584 199.227 302.935L210.825 290.129C211.412 289.48 212.424 289.431 213.072 290.017Z" fill="#F36553"/>
<path d="M232.013 303.064L231.476 301.892C231.181 301.247 231.467 300.479 232.112 300.184L244.84 294.361C245.484 294.067 246.252 294.352 246.548 294.997L247.083 296.169C247.379 296.815 247.092 297.583 246.448 297.879L233.721 303.7C233.076 303.995 232.307 303.709 232.013 303.064Z" fill="#363952"/>
<path d="M263.541 293.223L264.28 291.849C264.685 291.095 265.636 290.808 266.392 291.215L281.304 299.235C282.06 299.641 282.345 300.592 281.939 301.347L281.2 302.72C280.793 303.476 279.844 303.761 279.088 303.355L264.176 295.335C263.42 294.929 263.135 293.979 263.541 293.223Z" fill="#F8A7AB"/>
<path d="M301.404 297.659L302.405 297.841C302.957 297.941 303.327 298.473 303.227 299.025L301.252 309.904C301.153 310.456 300.62 310.824 300.069 310.724L299.068 310.543C298.515 310.443 298.147 309.909 298.247 309.359L300.22 298.48C300.32 297.929 300.852 297.56 301.404 297.659" fill="#6BCCA8"/>
<path d="M333.721 295.737L335.033 296.379C335.756 296.731 336.059 297.609 335.705 298.332L328.747 312.581C328.395 313.304 327.515 313.605 326.793 313.253L325.481 312.612C324.759 312.26 324.457 311.38 324.809 310.659L331.768 296.408C332.121 295.686 333 295.384 333.721 295.737Z" fill="#7C8D93"/>
<path d="M362.795 296.277L362.929 295.036C363.004 294.353 363.623 293.856 364.305 293.929L377.783 295.391C378.464 295.464 378.961 296.084 378.889 296.767L378.753 298.008C378.68 298.691 378.061 299.188 377.379 299.115L363.903 297.653C363.219 297.579 362.721 296.96 362.795 296.277" fill="#F36553"/>
<path d="M405.537 294.555L406.22 296.037C406.595 296.852 406.236 297.827 405.42 298.203L389.324 305.614C388.508 305.988 387.533 305.628 387.159 304.814L386.476 303.331C386.1 302.515 386.46 301.541 387.276 301.165L403.372 293.755C404.187 293.38 405.163 293.74 405.537 294.555" fill="#7C8D93"/>
<path d="M21.1234 339.144L19.9578 337.864C19.3172 337.16 19.3682 336.06 20.0724 335.419L33.9683 322.761C34.6713 322.12 35.7719 322.171 36.4136 322.875L37.5792 324.155C38.2208 324.859 38.1688 325.96 37.4656 326.6L23.5697 339.259C22.8656 339.9 21.7651 339.848 21.1234 339.144Z" fill="#363952"/>
<path d="M53.2912 342.8L51.6183 341.698C50.6989 341.093 50.4412 339.844 51.0479 338.924L63.0063 320.765C63.6131 319.845 64.8604 319.588 65.7807 320.193L67.4527 321.295C68.3735 321.902 68.6297 323.149 68.0245 324.069L56.0645 342.229C55.4593 343.149 54.2104 343.407 53.2912 342.8" fill="#6BCCA8"/>
<path d="M80.1401 338.44L79.3552 336.805C78.9229 335.907 79.3041 334.817 80.2027 334.384L97.9527 325.851C98.8511 325.419 99.9412 325.8 100.373 326.698L101.158 328.333C101.591 329.233 101.209 330.322 100.311 330.755L82.562 339.289C81.6625 339.721 80.5724 339.34 80.1401 338.44Z" fill="#363952"/>
<path d="M134.625 319.507L135.91 321.035C136.616 321.875 136.506 323.139 135.667 323.845L119.088 337.789C118.248 338.496 116.983 338.386 116.277 337.547L114.993 336.02C114.286 335.18 114.395 333.915 115.235 333.209L131.814 319.264C132.653 318.557 133.919 318.667 134.625 319.507Z" fill="#7C8D93"/>
<path d="M146.456 344.912L145.14 343.853C144.417 343.272 144.301 342.205 144.883 341.481L156.365 327.204C156.948 326.481 158.015 326.365 158.737 326.947L160.053 328.004C160.776 328.586 160.892 329.655 160.311 330.377L148.828 344.655C148.247 345.377 147.18 345.493 146.456 344.912" fill="#F36553"/>
<path d="M183.877 320.315L185.879 320.273C186.979 320.251 187.899 321.132 187.92 322.233L188.367 343.961C188.391 345.061 187.508 345.98 186.407 346.003L184.405 346.044C183.305 346.067 182.387 345.185 182.364 344.084L181.917 322.357C181.895 321.256 182.777 320.337 183.877 320.315Z" fill="#F36553"/>
<path d="M218.535 327.592L219.004 326.437C219.261 325.803 219.992 325.495 220.625 325.752L233.153 330.841C233.789 331.098 234.097 331.828 233.84 332.463L233.371 333.617C233.113 334.252 232.383 334.56 231.748 334.303L219.22 329.214C218.585 328.956 218.277 328.225 218.535 327.592" fill="#7C8D93"/>
<path d="M262.98 326.759L263.493 328.115C263.776 328.861 263.396 329.703 262.649 329.984L247.924 335.552C247.179 335.835 246.337 335.455 246.055 334.709L245.543 333.352C245.26 332.607 245.639 331.765 246.385 331.484L261.112 325.915C261.857 325.633 262.699 326.014 262.98 326.759Z" fill="#F8A7AB"/>
<path d="M276.563 330.151L276.909 328.644C277.1 327.816 277.933 327.295 278.763 327.485L295.116 331.248C295.944 331.439 296.465 332.272 296.276 333.102L295.929 334.607C295.737 335.436 294.904 335.957 294.076 335.767L277.723 332.004C276.895 331.814 276.372 330.979 276.563 330.151" fill="#7C8D93"/>
<path d="M320.823 341.697L318.984 342.343C317.973 342.696 316.856 342.159 316.503 341.149L309.504 321.192C309.149 320.183 309.685 319.065 310.697 318.71L312.535 318.065C313.547 317.71 314.664 318.248 315.017 319.259L322.015 339.215C322.371 340.225 321.833 341.343 320.823 341.697" fill="#6BCCA8"/>
<path d="M342.193 336.019L342.176 334.971C342.165 334.395 342.628 333.915 343.205 333.905L354.58 333.707C355.157 333.697 355.636 334.16 355.647 334.737L355.665 335.784C355.676 336.36 355.212 336.84 354.635 336.851L343.26 337.048C342.683 337.059 342.204 336.595 342.193 336.019" fill="#363952"/>
<path d="M378.755 322.547L379.772 321.597C380.331 321.073 381.216 321.103 381.739 321.661L392.063 332.697C392.584 333.256 392.556 334.141 391.996 334.664L390.98 335.615C390.421 336.137 389.536 336.108 389.013 335.549L378.689 324.515C378.167 323.956 378.196 323.071 378.755 322.547Z" fill="#7C8D93"/>
<path d="M4.65832 357.919L6.06354 357.22C6.83696 356.837 7.78332 357.156 8.1677 357.929L15.7406 373.193C16.1245 373.967 15.8057 374.914 15.0323 375.297L13.626 375.995C12.8536 376.379 11.9073 376.06 11.5229 375.286L3.94999 360.021C3.56614 359.248 3.88488 358.302 4.65832 357.919Z" fill="#363952"/>
<path d="M36.8344 360.609L37.0636 358.947C37.1896 358.032 38.0427 357.388 38.9568 357.515L57.0088 360.01C57.924 360.136 58.5688 360.989 58.4421 361.903L58.212 363.565C58.0855 364.48 57.2339 365.125 56.3197 364.998L38.2667 362.503C37.3527 362.376 36.7079 361.524 36.8344 360.609" fill="#7C8D93"/>
<path d="M86.824 352.852L87.9541 354.31C88.5765 355.114 88.4281 356.277 87.626 356.9L71.7953 369.169C70.9932 369.792 69.8292 369.644 69.2068 368.841L68.0765 367.383C67.4552 366.581 67.6027 365.417 68.4047 364.796L84.2355 352.524C85.0375 351.904 86.2027 352.051 86.824 352.852" fill="#6BCCA8"/>
<path d="M111.475 355.586L112.968 356.103C113.79 356.386 114.23 357.292 113.946 358.114L108.341 374.329C108.057 375.151 107.153 375.591 106.332 375.307L104.838 374.791C104.017 374.507 103.577 373.603 103.86 372.78L109.465 356.564C109.748 355.743 110.653 355.303 111.475 355.586" fill="#363952"/>
<path d="M135.491 359.669L135.767 358.168C135.918 357.343 136.717 356.792 137.543 356.943L153.843 359.937C154.668 360.089 155.22 360.889 155.068 361.715L154.792 363.216C154.64 364.043 153.841 364.593 153.015 364.441L136.716 361.447C135.89 361.295 135.338 360.495 135.491 359.669" fill="#363952"/>
<path d="M181.78 358.347L182.46 359.619C182.836 360.319 182.569 361.197 181.869 361.572L168.057 368.969C167.357 369.345 166.479 369.079 166.104 368.38L165.423 367.107C165.048 366.408 165.313 365.528 166.013 365.153L179.825 357.755C180.525 357.38 181.404 357.647 181.78 358.347" fill="#7C8D93"/>
<path d="M210.065 361.291L210.824 362.34C211.241 362.917 211.112 363.731 210.535 364.148L199.145 372.395C198.568 372.812 197.753 372.683 197.337 372.105L196.576 371.056C196.159 370.479 196.291 369.665 196.867 369.247L208.256 361.002C208.833 360.584 209.647 360.714 210.065 361.291Z" fill="#7C8D93"/>
<path d="M228.892 361.649L228.841 359.959C228.812 359.028 229.551 358.244 230.481 358.216L248.844 357.667C249.775 357.639 250.559 358.377 250.585 359.308L250.636 360.998C250.664 361.929 249.925 362.714 248.996 362.741L230.632 363.291C229.703 363.319 228.919 362.58 228.892 361.649Z" fill="#F36553"/>
<path d="M268.511 356.992L270.064 357.402C270.917 357.627 271.433 358.51 271.208 359.364L266.765 376.232C266.54 377.086 265.657 377.601 264.801 377.377L263.248 376.967C262.395 376.741 261.879 375.859 262.104 375.004L266.547 358.137C266.772 357.283 267.656 356.768 268.511 356.992Z" fill="#6BCCA8"/>
<path d="M289.449 359.039L290.159 357.185C290.549 356.167 291.703 355.653 292.721 356.044L312.831 363.753C313.849 364.143 314.363 365.296 313.972 366.315L313.263 368.167C312.872 369.185 311.72 369.7 310.7 369.309L290.591 361.601C289.572 361.21 289.059 360.057 289.449 359.039Z" fill="#F36553"/>
<path d="M325.156 372.319L323.921 371.12C323.241 370.461 323.227 369.367 323.885 368.688L336.887 355.284C337.545 354.605 338.639 354.588 339.319 355.247L340.553 356.444C341.233 357.103 341.248 358.197 340.591 358.877L327.588 372.281C326.929 372.96 325.836 372.976 325.156 372.319" fill="#7C8D93"/>
<path d="M365.857 355.467L367.22 355.517C367.969 355.545 368.56 356.181 368.532 356.931L367.984 371.717C367.957 372.467 367.321 373.057 366.571 373.029L365.209 372.98C364.46 372.952 363.869 372.316 363.899 371.567L364.445 356.779C364.473 356.029 365.109 355.439 365.857 355.467Z" fill="#6BCCA8"/>
<path d="M405.228 353.603L406.444 355.157C407.112 356.014 406.959 357.26 406.104 357.928L389.227 371.124C388.372 371.792 387.125 371.639 386.457 370.784L385.241 369.229C384.572 368.375 384.725 367.129 385.58 366.46L402.459 353.264C403.313 352.596 404.56 352.748 405.228 353.603" fill="#7C8D93"/>
<path d="M61.1052 389.069L62.6521 389.559C63.5036 389.828 63.9787 390.745 63.7093 391.596L58.3875 408.395C58.1167 409.245 57.2 409.721 56.35 409.452L54.8031 408.961C53.9516 408.692 53.476 407.775 53.7459 406.924L59.0672 390.126C59.338 389.274 60.2547 388.798 61.1052 389.069" fill="#7C8D93"/>
<path d="M94.1505 388.837L95.7183 389.808C96.5817 390.343 96.85 391.485 96.3161 392.348L85.7771 409.379C85.2417 410.241 84.1 410.509 83.2364 409.976L81.6688 409.005C80.8057 408.471 80.536 407.328 81.0697 406.465L91.6104 389.436C92.1443 388.573 93.2875 388.303 94.1505 388.837" fill="#6BCCA8"/>
<path d="M157.465 388.198L158.371 387.573C158.869 387.229 159.559 387.356 159.903 387.855L166.691 397.691C167.035 398.189 166.908 398.879 166.409 399.222L165.504 399.848C165.007 400.191 164.316 400.065 163.972 399.567L157.184 389.731C156.841 389.232 156.967 388.543 157.465 388.198" fill="#363952"/>
<path d="M200.005 385.269L200.975 386.917C201.509 387.824 201.204 389.002 200.297 389.535L182.407 400.068C181.501 400.603 180.324 400.297 179.791 399.391L178.82 397.743C178.287 396.836 178.591 395.659 179.497 395.126L197.387 384.592C198.292 384.059 199.471 384.362 200.005 385.269" fill="#6BCCA8"/>
<path d="M251.491 387.631L252.633 387.064C253.263 386.752 254.032 387.012 254.344 387.641L260.493 400.056C260.805 400.685 260.545 401.455 259.916 401.765L258.773 402.332C258.144 402.644 257.375 402.384 257.064 401.755L250.913 389.34C250.601 388.712 250.861 387.941 251.491 387.631" fill="#7C8D93"/>
<path d="M347.483 385.709L349.092 385.648C349.977 385.614 350.731 386.31 350.763 387.196L351.428 404.671C351.461 405.556 350.765 406.308 349.88 406.343L348.271 406.404C347.385 406.436 346.633 405.74 346.6 404.855L345.935 387.38C345.901 386.493 346.597 385.743 347.483 385.709" fill="#7C8D93"/>
<path d="M377.568 404.541L376.189 403.708C375.433 403.249 375.188 402.255 375.648 401.497L384.701 386.552C385.16 385.796 386.155 385.552 386.911 386.01L388.289 386.844C389.045 387.303 389.289 388.297 388.831 389.055L379.777 403.998C379.319 404.756 378.324 405 377.568 404.541" fill="#363952"/>
</svg>
